{
.appVersion = "1357";
classes = (
{
code = "u112BA u112BE u112BF u112C1 u112C5 u112C6 u112C8 u112CB u112CD u112D2 u112D7 u112D9 u112DA u112DB u112DE u112DF";
name = class1;
},
{
code = "u112CB u112CE u112D1 u112D2 u112D4 u112D6";
name = class2;
},
{
code = "u112BA u112BB u112BD u112C3 u112C7 u112CC u112D7";
name = class3;
},
{
code = "u112DF u112E5 u112E6 u112E7 u112E8 u112E8.alt u112E7.alt u112E7_straight u112E7_straight.alt";
name = markAttachmentSet1;
},
{
code = "u112C4 u112CD u112D1 u112D4 u112D6 u112DC u112DE";
name = class6;
}
);
copyright = "Copyright 2018-2021 Google Inc. All Rights Reserved.";
customParameters = (
{
name = glyphOrder;
value = (
.notdef,
NULL,
CR,
space,
uni00A0,
uni0964,
uni0965,
uni200C,
uni200D,
uni2013,
uni2014,
uni25CC,
uniA830,
uniA831,
uniA832,
uniA833,
uniA834,
uniA835,
uniA836,
uniA837,
uniA838,
uniA839,
u112B0,
u112B1,
u112B2,
u112B3,
u112B4,
u112B5,
u112B6,
u112B7,
u112B8,
u112B9,
u112BA,
u112BB,
u112BC,
u112BD,
u112BE,
u112BF,
u112C0,
u112C1,
u112C2,
u112C3,
u112C4,
u112C5,
u112C6,
u112C7,
u112C8,
u112C9,
u112CA,
u112CB,
u112CC,
u112CD,
u112CE,
u112CF,
u112D0,
u112D1,
u112D2,
u112D3,
u112D4,
u112D5,
u112D6,
u112D7,
u112D8,
u112D9,
u112DA,
u112DB,
u112DC,
u112DD,
u112DE,
u112DF,
u112E0,
u112E1,
u112E2,
u112E3,
u112E4,
u112E5,
u112E6,
u112E7,
u112E8,
u112E9,
u112EA,
u112F0,
u112F1,
u112F2,
u112F3,
u112F4,
u112F5,
u112F6,
u112F7,
u112F8,
u112F9,
u112E1_u112C0,
u112C0_u112E2,
u112E1_u112C3,
u112C3_u112E2,
u112E1_u112D1,
u112D1_u112E2,
u112E1_u112D4,
u112D4_u112E2,
u112D6_u112E2,
u112E1_u112BD,
u112E1_u112D7,
u112E2.alt,
u112E8.alt,
u112E7.alt,
u112E7_straight,
u112E7_straight.alt,
u112E1.alt,
u112E1.alt2,
u112E1.alt3
);
},
{
name = unicodeRanges;
value = (
0,
1,
15,
31,
45,
57
);
},
{
name = "Has WWS Names";
value = 1;
},
{
name = fsType;
value = (
);
},
{
name = codePageRanges;
value = (
1252
);
},
{
name = description;
value = "Designed by Monotype design team.";
},
{
name = license;

glyphs = (
{
glyphname = .notdef;
lastChange = "2018-06-07 20:09:23 +0000";
layers = (
{
layerId = UUID0;
paths = (
{
closed = 1;
nodes = (
"505 0 LINE",
"505 714 LINE",
"94 714 LINE",
"94 0 LINE"
);
},
{
closed = 1;
nodes = (
"145 663 LINE",
"454 663 LINE",
"454 51 LINE",
"145 51 LINE"
);
}
);
width = 600;
}
);
},
{
glyphname = uni0964;
lastChange = "2018-06-07 20:09:23 +0000";
layers = (
{
layerId = UUID0;
paths = (
{
closed = 1;
nodes = (
"159 0 LINE",
"159 622 LINE",
"78 622 LINE",
"78 0 LINE"
);
}
);
width = 237;
}
);
unicode = 0964;
category = Letter;
},
{
glyphname = uni0965;
lastChange = "2018-06-07 20:09:23 +0000";
layers = (
{
layerId = UUID0;
paths = (
{
closed = 1;
nodes = (
"379 0 LINE",
"379 622 LINE",
"298 622 LINE",
"298 0 LINE"
);
},
{
closed = 1;
nodes = (
"159 0 LINE",
"159 622 LINE",
"78 622 LINE",
"78 0 LINE"
);
}
);
width = 457;
}
);
unicode = 0965;
category = Letter;
},
{
glyphname = uni2013;
lastChange = "2018-06-07 20:09:23 +0000";
layers = (
{
layerId = UUID0;
paths = (
{
closed = 1;
nodes = (
"460 229 LINE",
"460 307 LINE",
"40 307 LINE",
"40 229 LINE"
);
}
);
width = 500;
}
);
unicode = 2013;
category = Letter;
},
{
glyphname = uni2014;
lastChange = "2018-06-07 20:09:23 +0000";
layers = (
{
layerId = UUID0;
paths = (
{
closed = 1;
nodes = (
"960 229 LINE",
"960 307 LINE",
"40 307 LINE",
"40 229 LINE"
);
}
);
width = 1000;
}
);
unicode = 2014;
category = Letter;
},
{
glyphname = uni25CC;
lastChange = "2018-06-07 20:09:23 +0000";
layers = (
{
layerId = UUID0;
paths = (
{
closed = 1;
nodes = (
"470 423 OFFCURVE",
"481 434 OFFCURVE",
"481 449 CURVE SMOOTH",
"481 464 OFFCURVE",
"470 475 OFFCURVE",
"455 475 CURVE SMOOTH",
"440 475 OFFCURVE",
"429 464 OFFCURVE",
"429 449 CURVE SMOOTH",
"429 434 OFFCURVE",
"440 423 OFFCURVE",
"455 423 CURVE SMOOTH"
);
},
{
closed = 1;
nodes = (
"154 107 OFFCURVE",
"165 118 OFFCURVE",
"165 133 CURVE SMOOTH",
"165 148 OFFCURVE",
"154 159 OFFCURVE",
"139 159 CURVE SMOOTH",
"124 159 OFFCURVE",
"113 148 OFFCURVE",
"113 133 CURVE SMOOTH",
"113 118 OFFCURVE",
"124 107 OFFCURVE",
"139 107 CURVE SMOOTH"
);
},
{
closed = 1;
nodes = (
"107 181 OFFCURVE",
"118 192 OFFCURVE",
"118 207 CURVE SMOOTH",
"118 222 OFFCURVE",
"107 233 OFFCURVE",
"92 233 CURVE SMOOTH",
"77 233 OFFCURVE",
"66 222 OFFCURVE",
"66 207 CURVE SMOOTH",
"66 192 OFFCURVE",
"77 181 OFFCURVE",
"92 181 CURVE SMOOTH"
);
},
{
closed = 1;
nodes = (
"228 60 OFFCURVE",
"239 71 OFFCURVE",
"239 86 CURVE SMOOTH",
"239 101 OFFCURVE",
"228 112 OFFCURVE",
"213 112 CURVE SMOOTH",
"198 112 OFFCURVE",
"187 101 OFFCURVE",
"187 86 CURVE SMOOTH",
"187 71 OFFCURVE",
"198 60 OFFCURVE",
"213 60 CURVE SMOOTH"
);
},
{
closed = 1;
nodes = (
"89 265 OFFCURVE",
"100 276 OFFCURVE",
"100 291 CURVE SMOOTH",
"100 306 OFFCURVE",
"89 317 OFFCURVE",
"74 317 CURVE SMOOTH",
"59 317 OFFCURVE",
"48 306 OFFCURVE",
"48 291 CURVE SMOOTH",
"48 276 OFFCURVE",
"59 265 OFFCURVE",
"74 265 CURVE SMOOTH"
);
},
{
closed = 1;
nodes = (
"312 42 OFFCURVE",
"323 53 OFFCURVE",
"323 68 CURVE SMOOTH",
"323 83 OFFCURVE",
"312 94 OFFCURVE",
"297 94 CURVE SMOOTH",
"282 94 OFFCURVE",
"271 83 OFFCURVE",
"271 68 CURVE SMOOTH",
"271 53 OFFCURVE",
"282 42 OFFCURVE",
"297 42 CURVE SMOOTH"
);
},
{
closed = 1;
nodes = (
"107 349 OFFCURVE",
"118 360 OFFCURVE",
"118 375 CURVE SMOOTH",
"118 390 OFFCURVE",
"107 401 OFFCURVE",
"92 401 CURVE SMOOTH",
"77 401 OFFCURVE",
"66 390 OFFCURVE",
"66 375 CURVE SMOOTH",
"66 360 OFFCURVE",
"77 349 OFFCURVE",
"92 349 CURVE SMOOTH"
);
},
{
closed = 1;
nodes = (
"396 60 OFFCURVE",
"407 71 OFFCURVE",
"407 86 CURVE SMOOTH",
"407 101 OFFCURVE",
"396 112 OFFCURVE",
"381 112 CURVE SMOOTH",
"366 112 OFFCURVE",
"355 101 OFFCURVE",
"355 86 CURVE SMOOTH",
"355 71 OFFCURVE",
"366 60 OFFCURVE",
"381 60 CURVE SMOOTH"
);
},
{
closed = 1;
nodes = (
"154 423 OFFCURVE",
"165 434 OFFCURVE",
"165 449 CURVE SMOOTH",
"165 464 OFFCURVE",
"154 475 OFFCURVE",
"139 475 CURVE SMOOTH",
"124 475 OFFCURVE",
"113 464 OFFCURVE",
"113 449 CURVE SMOOTH",
"113 434 OFFCURVE",
"124 423 OFFCURVE",
"139 423 CURVE SMOOTH"
);
},
{
closed = 1;
nodes = (
"470 107 OFFCURVE",
"481 118 OFFCURVE",
"481 133 CURVE SMOOTH",
"481 148 OFFCURVE",
"470 159 OFFCURVE",
"455 159 CURVE SMOOTH",
"440 159 OFFCURVE",
"429 148 OFFCURVE",
"429 133 CURVE SMOOTH",
"429 118 OFFCURVE",
"440 107 OFFCURVE",
"455 107 CURVE SMOOTH"
);
},
{
closed = 1;
nodes = (
"228 470 OFFCURVE",
"239 481 OFFCURVE",
"239 496 CURVE SMOOTH",
"239 511 OFFCURVE",
"228 522 OFFCURVE",
"213 522 CURVE SMOOTH",
"198 522 OFFCURVE",
"187 511 OFFCURVE",
"187 496 CURVE SMOOTH",
"187 481 OFFCURVE",
"198 470 OFFCURVE",
"213 470 CURVE SMOOTH"
);
},
{
closed = 1;
nodes = (
"517 181 OFFCURVE",
"528 192 OFFCURVE",
"528 207 CURVE SMOOTH",
"528 222 OFFCURVE",
"517 233 OFFCURVE",
"502 233 CURVE SMOOTH",
"487 233 OFFCURVE",
"476 222 OFFCURVE",
"476 207 CURVE SMOOTH",
"476 192 OFFCURVE",
"487 181 OFFCURVE",
"502 181 CURVE SMOOTH"
);
},
{
closed = 1;
nodes = (
"312 488 OFFCURVE",
"323 499 OFFCURVE",
"323 514 CURVE SMOOTH",
"323 529 OFFCURVE",
"312 540 OFFCURVE",
"297 540 CURVE SMOOTH",
"282 540 OFFCURVE",
"271 529 OFFCURVE",
"271 514 CURVE SMOOTH",
"271 499 OFFCURVE",
"282 488 OFFCURVE",
"297 488 CURVE SMOOTH"
);
},
{
closed = 1;
nodes = (
"535 265 OFFCURVE",
"546 276 OFFCURVE",
"546 291 CURVE SMOOTH",
"546 306 OFFCURVE",
"535 317 OFFCURVE",
"520 317 CURVE SMOOTH",
"505 317 OFFCURVE",
"494 306 OFFCURVE",
"494 291 CURVE SMOOTH",
"494 276 OFFCURVE",
"505 265 OFFCURVE",
"520 265 CURVE SMOOTH"
);
},
{
closed = 1;
nodes = (
"396 470 OFFCURVE",
"407 481 OFFCURVE",
"407 496 CURVE SMOOTH",
"407 511 OFFCURVE",
"396 522 OFFCURVE",
"381 522 CURVE SMOOTH",
"366 522 OFFCURVE",
"355 511 OFFCURVE",
"355 496 CURVE SMOOTH",
"355 481 OFFCURVE",
"366 470 OFFCURVE",
"381 470 CURVE SMOOTH"
);
},
{
closed = 1;
nodes = (
"517 349 OFFCURVE",
"528 360 OFFCURVE",
"528 375 CURVE SMOOTH",
"528 390 OFFCURVE",
"517 401 OFFCURVE",
"502 401 CURVE SMOOTH",
"487 401 OFFCURVE",
"476 390 OFFCURVE",
"476 375 CURVE SMOOTH",
"476 360 OFFCURVE",
"487 349 OFFCURVE",
"502 349 CURVE SMOOTH"
);
}
);
width = 594;
}
);
unicode = 25CC;
category = Letter;
},
{
glyphname = uniA830;
lastChange = "2018-06-07 20:09:23 +0000";
layers = (
{
layerId = UUID0;
paths = (
{
closed = 1;
nodes = (
"159 0 LINE",
"159 622 LINE",
"78 622 LINE",
"78 0 LINE"
);
}
);
width = 237;
}
);
unicode = A830;
category = Letter;
},
{
glyphname = uniA831;
lastChange = "2018-06-07 20:09:23 +0000";
layers = (
{
layerId = UUID0;
paths = (
{
closed = 1;
nodes = (
"359 0 LINE",
"359 622 LINE",
"278 622 LINE",
"278 0 LINE"
);
},
{
closed = 1;
nodes = (
"159 0 LINE",
"159 622 LINE",
"78 622 LINE",
"78 0 LINE"
);
}
);
width = 437;
}
);
unicode = A831;
category = Letter;
},
{
glyphname = uniA832;
lastChange = "2018-06-07 20:09:23 +0000";
layers = (
{
layerId = UUID0;
paths = (
{
closed = 1;
nodes = (
"559 0 LINE",
"559 622 LINE",
"478 622 LINE",
"478 0 LINE"
);
},
{
closed = 1;
nodes = (
"159 0 LINE",
"159 622 LINE",
"78 622 LINE",
"78 0 LINE"
);
},
{
closed = 1;
nodes = (
"359 0 LINE",
"359 622 LINE",
"278 622 LINE",
"278 0 LINE"
);
}
);
width = 637;
}
);
unicode = A832;
category = Letter;
},
{
glyphname = uniA833;
lastChange = "2018-06-07 20:09:23 +0000";
layers = (
{
layerId = UUID0;
paths = (
{
closed = 1;
nodes = (
"583 542 LINE",
"563 622 LINE",
"40 491 LINE",
"60 412 LINE"
);
}
);
width = 623;
}
);
unicode = A833;
category = Letter;
},
{
glyphname = uniA834;
lastChange = "2018-06-07 20:09:23 +0000";
layers = (
{
layerId = UUID0;
paths = (
{
closed = 1;
nodes = (
"583 542 LINE",
"563 622 LINE",
"40 491 LINE",
"60 412 LINE"
);
},
{
closed = 1;
nodes = (
"583 345 LINE",
"563 425 LINE",
"40 294 LINE",
"60 215 LINE"
);
}
);
width = 623;
}
);
unicode = A834;
category = Letter;
},
{
glyphname = uniA835;
lastChange = "2018-06-07 20:09:23 +0000";
layers = (
{
layerId = UUID0;
paths = (
{
closed = 1;
nodes = (
"583 542 LINE",
"563 622 LINE",
"40 491 LINE",
"60 412 LINE"
);
},
{
closed = 1;
nodes = (
"583 148 LINE",
"563 228 LINE",
"40 97 LINE",
"60 18 LINE"
);
},
{
closed = 1;
nodes = (
"583 345 LINE",
"563 425 LINE",
"40 294 LINE",
"60 215 LINE"
);
}
);
width = 623;
}
);
unicode = A835;
category = Letter;
},
{
glyphname = uniA836;
lastChange = "2018-06-07 20:09:23 +0000";
layers = (
{
layerId = UUID0;
paths = (
{
closed = 1;
nodes = (
"330 167 OFFCURVE",
"393 236 OFFCURVE",
"393 321 CURVE SMOOTH",
"393 407 OFFCURVE",
"329 473 OFFCURVE",
"230 473 CURVE SMOOTH",
"132 473 OFFCURVE",
"67 408 OFFCURVE",
"67 320 CURVE SMOOTH",
"67 232 OFFCURVE",
"132 167 OFFCURVE",
"230 167 CURVE SMOOTH"
);
},
{
closed = 1;
nodes = (
"174 237 OFFCURVE",
"143 270 OFFCURVE",
"143 321 CURVE SMOOTH",
"143 368 OFFCURVE",
"173 404 OFFCURVE",
"229 404 CURVE SMOOTH",
"283 404 OFFCURVE",
"317 370 OFFCURVE",
"317 319 CURVE SMOOTH",
"317 270 OFFCURVE",
"286 237 OFFCURVE",
"230 237 CURVE SMOOTH"
);
}
);
width = 460;
}
);
unicode = A836;
category = Letter;
},
{
glyphname = uniA837;
lastChange = "2018-06-07 20:09:23 +0000";
layers = (
{
layerId = UUID0;
paths = (
{
closed = 1;
nodes = (
"320 86 OFFCURVE",
"383 147 OFFCURVE",
"383 241 CURVE SMOOTH",
"383 329 OFFCURVE",
"318 391 OFFCURVE",
"222 391 CURVE",
"150 341 LINE",
"150 315 LINE",
"221 355 OFFCURVE",
"328 429 OFFCURVE",
"407 492 CURVE SMOOTH",
"499 565 LINE",
"453 623 LINE",
"158 395 LINE SMOOTH",
"115 362 OFFCURVE",
"57 316 OFFCURVE",
"57 236 CURVE SMOOTH",
"57 147 OFFCURVE",
"124 86 OFFCURVE",
"221 86 CURVE SMOOTH"
);
},
{
closed = 1;
nodes = (
"164 156 OFFCURVE",
"133 189 OFFCURVE",
"133 238 CURVE SMOOTH",
"133 287 OFFCURVE",
"164 323 OFFCURVE",
"219 323 CURVE SMOOTH",
"273 323 OFFCURVE",
"307 288 OFFCURVE",
"307 238 CURVE SMOOTH",
"307 191 OFFCURVE",
"276 156 OFFCURVE",
"219 156 CURVE SMOOTH"
);
}
);
width = 509;
}
);
unicode = A837;
category = Letter;
},
{
glyphname = uniA838;
lastChange = "2018-06-07 20:09:23 +0000";
layers = (
{
layerId = UUID0;
paths = (
{
closed = 1;
nodes = (
"199 -188 OFFCURVE",
"246 -10 OFFCURVE",
"246 175 CURVE SMOOTH",
"246 323 OFFCURVE",
"219 495 OFFCURVE",
"185 620 CURVE",
"104 602 LINE",
"134 492 OFFCURVE",
"164 335 OFFCURVE",
"164 182 CURVE SMOOTH",
"164 -10 OFFCURVE",
"112 -115 OFFCURVE",
"-58 -115 CURVE SMOOTH",
"-90 -115 OFFCURVE",
"-117 -111 OFFCURVE",
"-150 -104 CURVE",
"-157 -177 LINE",
"-132 -182 OFFCURVE",
"-96 -188 OFFCURVE",
"-53 -188 CURVE SMOOTH"
);
}
);
width = 326;
}
);
unicode = A838;
category = Letter;
},
{
glyphname = uniA839;
lastChange = "2018-06-07 20:09:23 +0000";
layers = (
{
layerId = UUID0;
paths = (
{
closed = 1;
nodes = (
"197 -240 OFFCURVE",
"262 -84 OFFCURVE",
"262 35 CURVE SMOOTH",
"262 110 OFFCURVE",
"230 184 OFFCURVE",
"197 259 CURVE SMOOTH",
"169 322 OFFCURVE",
"151 364 OFFCURVE",
"151 406 CURVE SMOOTH",
"151 486 OFFCURVE",
"214 524 OFFCURVE",
"333 547 CURVE",
"313 620 LINE",
"161 588 OFFCURVE",
"65 526 OFFCURVE",
"65 405 CURVE SMOOTH",
"65 342 OFFCURVE",
"91 283 OFFCURVE",
"118 222 CURVE SMOOTH",
"146 159 OFFCURVE",
"176 91 OFFCURVE",
"176 32 CURVE SMOOTH",
"176 -73 OFFCURVE",
"113 -160 OFFCURVE",
"-101 -160 CURVE SMOOTH",
"-113 -160 OFFCURVE",
"-137 -159 OFFCURVE",
"-150 -157 CURVE",
"-157 -237 LINE",
"-132 -239 OFFCURVE",
"-119 -240 OFFCURVE",
"-95 -240 CURVE SMOOTH"
);
}
);
width = 337;
}
);
unicode = A839;
category = Letter;
},
{
glyphname = u112B0;
lastChange = "2018-06-07 20:09:45 +0000";
layers = (
{
anchors = (
{
name = Anchor4;
position = "{530, 0}";
},
{
name = Anchor9;
position = "{540, 680}";
}
);
layerId = UUID0;
paths = (
{
closed = 1;
nodes = (
"925 -10 OFFCURVE",
"947 -8 OFFCURVE",
"966 0 CURVE",
"976 75 LINE",
"956 68 OFFCURVE",
"934 65 OFFCURVE",
"923 65 CURVE SMOOTH",
"869 65 OFFCURVE",
"847 92 OFFCURVE",
"847 151 CURVE SMOOTH",
"847 176 OFFCURVE",
"850 220 OFFCURVE",
"855 268 CURVE SMOOTH",
"861 326 OFFCURVE",
"867 386 OFFCURVE",
"867 437 CURVE SMOOTH",
"867 552 OFFCURVE",
"836 620 OFFCURVE",
"738 620 CURVE SMOOTH",
"625 620 OFFCURVE",
"565 514 OFFCURVE",
"535 341 CURVE",
"564 351 LINE",
"547 520 OFFCURVE",
"524 620 OFFCURVE",
"409 620 CURVE SMOOTH",
"292 620 OFFCURVE",
"234 482 OFFCURVE",
"227 294 CURVE",
"237 313 LINE",
"208 423 OFFCURVE",
"156 544 OFFCURVE",
"82 620 CURVE",
"22 566 LINE",
"106 474 OFFCURVE",
"189 318 OFFCURVE",
"197 164 CURVE",
"177 0 LINE",
"262 0 LINE",
"301 316 LINE SMOOTH",
"317 445 OFFCURVE",
"343 535 OFFCURVE",
"410 535 CURVE SMOOTH",
"490 535 OFFCURVE",
"499 373 OFFCURVE",
"499 197 CURVE",
"477 0 LINE",
"562 0 LINE",
"585 226 LINE SMOOTH",
"607 441 OFFCURVE",
"659 535 OFFCURVE",
"725 535 CURVE SMOOTH",
"778 535 OFFCURVE",
"782 473 OFFCURVE",
"782 423 CURVE SMOOTH",
"782 376 OFFCURVE",
"777 334 OFFCURVE",
"770 283 CURVE SMOOTH",
"764 242 OFFCURVE",
"761 183 OFFCURVE",
"761 129 CURVE SMOOTH",
"761 38 OFFCURVE",
"803 -10 OFFCURVE",
"904 -10 CURVE SMOOTH"
);
}
);
width = 996;
}
);
unicode = 112B0;
category = Letter;
},
{
glyphname = u112B2;
lastChange = "2018-06-07 20:09:45 +0000";
layers = (
{
anchors = (
{
name = Anchor4;
position = "{264, 0}";
},
{
name = Anchor9;
position = "{344, 680}";
}
);
layerId = UUID0;
paths = (
{
closed = 1;
nodes = (
"404 -10 OFFCURVE",
"460 102 OFFCURVE",
"460 199 CURVE SMOOTH",
"460 324 OFFCURVE",
"369 417 OFFCURVE",
"240 428 CURVE",
"168 369 LINE",
"292 369 OFFCURVE",
"375 302 OFFCURVE",
"375 198 CURVE SMOOTH",
"375 145 OFFCURVE",
"344 70 OFFCURVE",
"256 70 CURVE SMOOTH",
"173 70 OFFCURVE",
"135 134 OFFCURVE",
"135 204 CURVE SMOOTH",
"135 399 OFFCURVE",
"339 520 OFFCURVE",
"617 552 CURVE",
"601 620 LINE",
"408 613 OFFCURVE",
"50 484 OFFCURVE",
"50 206 CURVE SMOOTH",
"50 108 OFFCURVE",
"98 -10 OFFCURVE",
"255 -10 CURVE SMOOTH"
);
}
);
width = 607;
}
);
unicode = 112B2;
category = Letter;
},
{
glyphname = u112B3;
lastChange = "2018-06-07 20:09:45 +0000";
layers = (
{
anchors = (
{
name = Anchor4;
position = "{446, 0}";
},
{
name = Anchor9;
position = "{442, 680}";
}
);
layerId = UUID0;
paths = (
{
closed = 1;
nodes = (
"357 -10 OFFCURVE",
"416 73 OFFCURVE",
"416 208 CURVE SMOOTH",
"416 371 OFFCURVE",
"330 456 OFFCURVE",
"230 498 CURVE",
"167 436 LINE",
"280 401 OFFCURVE",
"331 315 OFFCURVE",
"331 201 CURVE SMOOTH",
"331 145 OFFCURVE",
"319 70 OFFCURVE",
"240 70 CURVE SMOOTH",
"179 70 OFFCURVE",
"135 114 OFFCURVE",
"135 216 CURVE SMOOTH",
"135 392 OFFCURVE",
"264 500 OFFCURVE",
"448 500 CURVE SMOOTH",
"627 500 OFFCURVE",
"759 399 OFFCURVE",
"759 217 CURVE SMOOTH",
"759 112 OFFCURVE",
"715 70 OFFCURVE",
"657 70 CURVE SMOOTH",
"570 70 OFFCURVE",
"563 164 OFFCURVE",
"563 205 CURVE SMOOTH",
"563 403 OFFCURVE",
"751 509 OFFCURVE",
"967 552 CURVE",
"951 620 LINE",
"714 578 OFFCURVE",
"478 443 OFFCURVE",
"478 205 CURVE SMOOTH",
"478 83 OFFCURVE",
"540 -10 OFFCURVE",
"656 -10 CURVE SMOOTH",
"775 -10 OFFCURVE",
"844 87 OFFCURVE",
"844 224 CURVE SMOOTH",
"844 440 OFFCURVE",
"674 580 OFFCURVE",
"453 580 CURVE SMOOTH",
"240 580 OFFCURVE",
"50 449 OFFCURVE",
"50 215 CURVE SMOOTH",
"50 74 OFFCURVE",
"119 -10 OFFCURVE",
"238 -10 CURVE SMOOTH"
);
}
);
width = 967;
}
);
unicode = 112B3;
category = Letter;
},
{
glyphname = u112B4;
lastChange = "2018-06-07 20:09:45 +0000";
layers = (
{
anchors = (
{
name = Anchor4;
position = "{340, 0}";
},
{
name = Anchor9;
position = "{344, 680}";
}
);
layerId = UUID0;
paths = (
{
closed = 1;
nodes = (
"508 -10 OFFCURVE",
"608 57 OFFCURVE",
"608 192 CURVE SMOOTH",
"608 253 OFFCURVE",
"587 291 OFFCURVE",
"554 318 CURVE",
"585 345 OFFCURVE",
"604 383 OFFCURVE",
"604 438 CURVE SMOOTH",
"604 557 OFFCURVE",
"517 610 OFFCURVE",
"406 610 CURVE SMOOTH",
"267 610 LINE SMOOTH",
"193 610 OFFCURVE",
"50 597 OFFCURVE",
"50 311 CURVE SMOOTH",
"50 80 OFFCURVE",
"135 -10 OFFCURVE",
"335 -10 CURVE SMOOTH"
);
},
{
closed = 1;
nodes = (
"213 70 OFFCURVE",
"135 107 OFFCURVE",
"135 315 CURVE SMOOTH",
"135 524 OFFCURVE",
"222 535 OFFCURVE",
"290 535 CURVE SMOOTH",
"399 535 LINE SMOOTH",
"490 535 OFFCURVE",
"519 495 OFFCURVE",
"519 447 CURVE SMOOTH",
"519 395 OFFCURVE",
"487 350 OFFCURVE",
"389 350 CURVE SMOOTH",
"360 350 OFFCURVE",
"317 353 OFFCURVE",
"285 359 CURVE",
"274 280 LINE",
"322 272 OFFCURVE",
"364 270 OFFCURVE",
"394 270 CURVE SMOOTH",
"424 270 OFFCURVE",
"452 272 OFFCURVE",
"471 277 CURVE",
"511 254 OFFCURVE",
"523 223 OFFCURVE",
"523 188 CURVE SMOOTH",
"523 109 OFFCURVE",
"462 70 OFFCURVE",
"336 70 CURVE SMOOTH"
);
}
);
width = 648;
}
);
unicode = 112B4;
category = Letter;
},
{
glyphname = u112B5;
lastChange = "2018-06-07 20:09:45 +0000";
layers = (
{
anchors = (
{
name = Anchor4;
position = "{340, 0}";
},
{
name = Anchor9;
position = "{372, 865}";
}
);
components = (
{
name = u112B4;
}
);
layerId = UUID0;
paths = (
{
closed = 1;
nodes = (
"209 601 LINE",
"233 705 OFFCURVE",
"286 743 OFFCURVE",
"369 743 CURVE SMOOTH",
"429 743 OFFCURVE",
"470 721 OFFCURVE",
"470 672 CURVE SMOOTH",
"470 651 OFFCURVE",
"463 631 OFFCURVE",
"452 600 CURVE",
"528 573 LINE",
"545 606 OFFCURVE",
"555 646 OFFCURVE",
"555 685 CURVE SMOOTH",
"555 773 OFFCURVE",
"485 820 OFFCURVE",
"372 820 CURVE SMOOTH",
"215 820 OFFCURVE",
"125 709 OFFCURVE",
"109 533 CURVE"
);
}
);
width = 648;
}
);
leftMetricsKey = u112B4;
rightMetricsKey = u112B4;
unicode = 112B5;
category = Letter;
},
{
glyphname = u112BA;
lastChange = "2018-06-07 20:09:47 +0000";
layers = (
{
anchors = (
{
name = Anchor11;
position = "{544, 680}";
},
{
name = Anchor4;
position = "{450, 0}";
},
{
name = Anchor6;
position = "{510, 600}";
},
{
name = Anchor9;
position = "{400, 680}";
}
);
layerId = UUID0;
paths = (
{
closed = 1;
nodes = (
"696 -10 OFFCURVE",
"718 -8 OFFCURVE",
"737 0 CURVE",
"747 75 LINE",
"727 68 OFFCURVE",
"705 65 OFFCURVE",
"694 65 CURVE SMOOTH",
"640 65 OFFCURVE",
"618 92 OFFCURVE",
"618 151 CURVE SMOOTH",
"618 176 OFFCURVE",
"621 220 OFFCURVE",
"626 268 CURVE SMOOTH",
"632 326 OFFCURVE",
"638 386 OFFCURVE",
"638 437 CURVE SMOOTH",
"638 552 OFFCURVE",
"605 620 OFFCURVE",
"499 620 CURVE SMOOTH",
"380 620 OFFCURVE",
"317 514 OFFCURVE",
"286 341 CURVE",
"315 351 LINE",
"301 520 OFFCURVE",
"281 620 OFFCURVE",
"176 620 CURVE SMOOTH",
"74 620 OFFCURVE",
"40 523 OFFCURVE",
"24 381 CURVE",
"98 366 LINE",
"110 469 OFFCURVE",
"125 535 OFFCURVE",
"170 535 CURVE SMOOTH",
"245 535 OFFCURVE",
"250 373 OFFCURVE",
"250 197 CURVE",
"228 0 LINE",
"313 0 LINE",
"336 226 LINE SMOOTH",
"358 441 OFFCURVE",
"415 535 OFFCURVE",
"486 535 CURVE SMOOTH",
"548 535 OFFCURVE",
"553 473 OFFCURVE",
"553 423 CURVE SMOOTH",
"553 382 OFFCURVE",
"547 325 OFFCURVE",
"541 273 CURVE SMOOTH",
"535 225 OFFCURVE",
"532 183 OFFCURVE",
"532 129 CURVE SMOOTH",
"532 38 OFFCURVE",
"574 -10 OFFCURVE",
"675 -10 CURVE SMOOTH"
);
}
);
width = 767;
}
);
rightMetricsKey = u112B0;
unicode = 112BA;
category = Letter;
},
{
glyphname = u112BB;
lastChange = "2018-06-07 20:09:47 +0000";
layers = (
{
anchors = (
{
name = Anchor11;
position = "{434, 680}";
},
{
name = Anchor4;
position = "{322, 0}";
},
{
name = Anchor6;
position = "{420, 580}";
},
{
name = Anchor9;
position = "{274, 680}";
}
);
layerId = UUID0;
paths = (
{
closed = 1;
nodes = (
"487 -10 OFFCURVE",
"566 59 OFFCURVE",
"566 176 CURVE SMOOTH",
"566 224 OFFCURVE",
"552 273 OFFCURVE",
"513 308 CURVE",
"550 340 OFFCURVE",
"566 384 OFFCURVE",
"566 431 CURVE SMOOTH",
"566 561 OFFCURVE",
"445 610 OFFCURVE",
"317 620 CURVE",
"301 547 LINE",
"405 540 OFFCURVE",
"481 509 OFFCURVE",
"481 435 CURVE SMOOTH",
"481 382 OFFCURVE",
"455 339 OFFCURVE",
"362 339 CURVE SMOOTH",
"261 339 LINE SMOOTH",
"168 339 OFFCURVE",
"105 368 OFFCURVE",
"105 448 CURVE SMOOTH",
"105 492 OFFCURVE",
"124 535 OFFCURVE",
"156 586 CURVE",
"86 620 LINE",
"55 573 OFFCURVE",
"20 508 OFFCURVE",
"20 437 CURVE SMOOTH",
"20 323 OFFCURVE",
"109 264 OFFCURVE",
"246 264 CURVE SMOOTH",
"368 264 LINE SMOOTH",
"388 264 OFFCURVE",
"410 265 OFFCURVE",
"426 268 CURVE",
"472 249 OFFCURVE",
"481 212 OFFCURVE",
"481 184 CURVE SMOOTH",
"481 101 OFFCURVE",
"419 70 OFFCURVE",
"352 70 CURVE SMOOTH",
"276 70 OFFCURVE",
"214 100 OFFCURVE",
"164 132 CURVE",
"120 63 LINE",
"189 12 OFFCURVE",
"266 -10 OFFCURVE",
"354 -10 CURVE SMOOTH"
);
}
);
width = 596;
}
);
unicode = 112BB;
category = Letter;
},
{
glyphname = u112BC;
lastChange = "2018-06-07 20:09:47 +0000";
layers = (
{
anchors = (
{
name = Anchor11;
position = "{494, 680}";
},
{
name = Anchor4;
position = "{320, 0}";
},
{
name = Anchor6;
position = "{430, 585}";
},
{
name = Anchor9;
position = "{308, 680}";
}
);
layerId = UUID0;
paths = (
{
closed = 1;
nodes = (
"523 -2 OFFCURVE",
"648 117 OFFCURVE",
"648 315 CURVE SMOOTH",
"648 489 OFFCURVE",
"544 610 OFFCURVE",
"318 610 CURVE SMOOTH",
"203 610 LINE SMOOTH",
"119 610 OFFCURVE",
"77 620 OFFCURVE",
"49 632 CURVE",
"25 564 LINE",
"40 553 OFFCURVE",
"62 547 OFFCURVE",
"85 542 CURVE",
"85 186 LINE SMOOTH",
"85 88 OFFCURVE",
"141 42 OFFCURVE",
"216 0 CURVE",
"254 71 LINE",
"198 102 OFFCURVE",
"169 140 OFFCURVE",
"169 210 CURVE SMOOTH",
"169 535 LINE",
"300 535 LINE SMOOTH",
"475 535 OFFCURVE",
"563 456 OFFCURVE",
"563 315 CURVE SMOOTH",
"563 200 OFFCURVE",
"504 77 OFFCURVE",
"363 69 CURVE",
"376 -10 LINE"
);
},
{
closed = 1;
nodes = (
"575 423 LINE",
"530 485 LINE",
"256 233 LINE",
"309 176 LINE"
);
}
);
width = 688;
}
);
unicode = 112BC;
category = Letter;
},
{
glyphname = u112BD;
lastChange = "2018-06-07 20:09:47 +0000";
layers = (
{
anchors = (
{
name = Anchor11;
position = "{504, 680}";
},
{
name = Anchor4;
position = "{367, 0}";
},
{
name = Anchor6;
position = "{532, 620}";
},
{
name = Anchor9;
position = "{463, 680}";
}
);
components = (
{
name = u112E0;
transform = "{1, 0, 0, 1, 431, 0}";
}
);
layerId = UUID0;
paths = (
{
closed = 1;
nodes = (
"387 -10 OFFCURVE",
"389 163 OFFCURVE",
"389 246 CURVE SMOOTH",
"389 610 LINE",
"307 620 LINE",
"307 272 LINE SMOOTH",
"307 187 OFFCURVE",
"305 70 OFFCURVE",
"209 70 CURVE SMOOTH",
"148 70 OFFCURVE",
"123 118 OFFCURVE",
"123 171 CURVE SMOOTH",
"123 226 OFFCURVE",
"150 269 OFFCURVE",
"212 269 CURVE SMOOTH",
"255 269 OFFCURVE",
"288 249 OFFCURVE",
"329 217 CURVE",
"329 304 LINE",
"296 329 OFFCURVE",
"258 347 OFFCURVE",
"206 347 CURVE SMOOTH",
"99 347 OFFCURVE",
"40 270 OFFCURVE",
"40 167 CURVE SMOOTH",
"40 71 OFFCURVE",
"92 -10 OFFCURVE",
"211 -10 CURVE SMOOTH"
);
}
);
width = 694;
}
);
rightMetricsKey = u112E0;
unicode = 112BD;
category = Letter;
},
{
glyphname = u112BE;
lastChange = "2018-06-07 20:09:47 +0000";
layers = (
{
anchors = (
{
name = Anchor11;
position = "{424, 680}";
},
{
name = Anchor4;
position = "{296, 0}";
},
{
name = Anchor6;
position = "{380, 585}";
},
{
name = Anchor9;
position = "{308, 680}";
}
);
layerId = UUID0;
paths = (
{
closed = 1;
nodes = (
"230 156 OFFCURVE",
"276 173 OFFCURVE",
"327 224 CURVE SMOOTH",
"509 407 LINE",
"476 482 LINE",
"283 285 LINE SMOOTH",
"250 251 OFFCURVE",
"226 228 OFFCURVE",
"188 228 CURVE SMOOTH",
"147 228 OFFCURVE",
"130 253 OFFCURVE",
"130 283 CURVE SMOOTH",
"130 316 OFFCURVE",
"153 336 OFFCURVE",
"187 336 CURVE SMOOTH",
"224 336 OFFCURVE",
"259 311 OFFCURVE",
"259 248 CURVE",
"321 283 LINE",
"314 371 OFFCURVE",
"252 408 OFFCURVE",
"187 408 CURVE SMOOTH",
"106 408 OFFCURVE",
"54 353 OFFCURVE",
"54 281 CURVE SMOOTH",
"54 209 OFFCURVE",
"105 156 OFFCURVE",
"184 156 CURVE SMOOTH"
);
},
{
closed = 1;
nodes = (
"455 -10 OFFCURVE",
"579 119 OFFCURVE",
"579 313 CURVE SMOOTH",
"579 513 OFFCURVE",
"445 620 OFFCURVE",
"276 620 CURVE SMOOTH",
"160 620 OFFCURVE",
"77 573 OFFCURVE",
"20 508 CURVE",
"76 451 LINE",
"132 513 OFFCURVE",
"197 541 OFFCURVE",
"275 541 CURVE SMOOTH",
"411 541 OFFCURVE",
"495 452 OFFCURVE",
"495 312 CURVE SMOOTH",
"495 165 OFFCURVE",
"405 69 OFFCURVE",
"272 69 CURVE SMOOTH",
"247 69 OFFCURVE",
"219 71 OFFCURVE",
"192 77 CURVE",
"192 0 LINE",
"221 -7 OFFCURVE",
"247 -10 OFFCURVE",
"275 -10 CURVE SMOOTH"
);
}
);
width = 629;
}
);
unicode = 112BE;
category = Letter;
},
{
glyphname = u112C0;
lastChange = "2018-06-07 20:09:47 +0000";
layers = (
{
anchors = (
{
name = Anchor11;
position = "{414, 680}";
},
{
name = Anchor4;
position = "{285, 0}";
},
{
name = Anchor6;
position = "{488, 573}";
},
{
name = Anchor9;
position = "{281, 680}";
}
);
layerId = UUID0;
paths = (
{
closed = 1;
nodes = (
"380 -10 OFFCURVE",
"457 40 OFFCURVE",
"457 153 CURVE SMOOTH",
"457 247 OFFCURVE",
"407 302 OFFCURVE",
"314 392 CURVE SMOOTH",
"78 620 LINE",
"22 560 LINE",
"261 328 LINE SMOOTH",
"343 249 OFFCURVE",
"372 213 OFFCURVE",
"372 152 CURVE SMOOTH",
"372 92 OFFCURVE",
"331 70 OFFCURVE",
"284 70 CURVE SMOOTH",
"230 70 OFFCURVE",
"192 99 OFFCURVE",
"192 155 CURVE SMOOTH",
"192 209 OFFCURVE",
"223 245 OFFCURVE",
"318 336 CURVE SMOOTH",
"556 562 LINE",
"501 620 LINE",
"259 390 LINE SMOOTH",
"168 303 OFFCURVE",
"107 244 OFFCURVE",
"107 147 CURVE SMOOTH",
"107 45 OFFCURVE",
"176 -10 OFFCURVE",
"280 -10 CURVE SMOOTH"
);
}
);
width = 578;
}
);
leftMetricsKey = u112B0;
rightMetricsKey = "=|u112B0";
unicode = 112C0;
category = Letter;
},
{
glyphname = u112C1;
lastChange = "2018-06-07 20:09:47 +0000";
layers = (
{
anchors = (
{
name = Anchor11;
position = "{494, 680}";
},
{
name = Anchor4;
position = "{344, 0}";
},
{
name = Anchor6;
position = "{354, 600}";
},
{
name = Anchor9;
position = "{365, 680}";
}
);
layerId = UUID0;
paths = (
{
closed = 1;
nodes = (
"455 0 LINE SMOOTH",
"604 0 OFFCURVE",
"649 80 OFFCURVE",
"649 154 CURVE SMOOTH",
"649 236 OFFCURVE",
"587 282 OFFCURVE",
"512 282 CURVE SMOOTH",
"432 282 OFFCURVE",
"380 235 OFFCURVE",
"380 155 CURVE SMOOTH",
"380 113 OFFCURVE",
"399 77 OFFCURVE",
"434 57 CURVE",
"520 66 LINE",
"497 77 OFFCURVE",
"460 99 OFFCURVE",
"460 148 CURVE SMOOTH",
"460 185 OFFCURVE",
"479 210 OFFCURVE",
"516 210 CURVE SMOOTH",
"554 210 OFFCURVE",
"570 180 OFFCURVE",
"570 150 CURVE SMOOTH",
"570 109 OFFCURVE",
"543 75 OFFCURVE",
"466 75 CURVE SMOOTH",
"317 75 LINE SMOOTH",
"248 75 OFFCURVE",
"163 89 OFFCURVE",
"163 177 CURVE SMOOTH",
"163 229 OFFCURVE",
"199 274 OFFCURVE",
"250 292 CURVE",
"171 327 LINE",
"117 291 OFFCURVE",
"78 234 OFFCURVE",
"78 165 CURVE SMOOTH",
"78 19 OFFCURVE",
"219 0 OFFCURVE",
"322 0 CURVE SMOOTH"
);
},
{
closed = 1;
nodes = (
"328 283 OFFCURVE",
"350 285 OFFCURVE",
"384 289 CURVE",
"396 366 LINE",
"357 361 OFFCURVE",
"320 358 OFFCURVE",
"304 358 CURVE SMOOTH",
"228 358 OFFCURVE",
"188 392 OFFCURVE",
"188 455 CURVE SMOOTH",
"188 497 OFFCURVE",
"211 534 OFFCURVE",
"238 554 CURVE",
"150 554 LINE",
"120 528 OFFCURVE",
"103 477 OFFCURVE",
"103 439 CURVE SMOOTH",
"103 336 OFFCURVE",
"193 283 OFFCURVE",
"298 283 CURVE SMOOTH"
);
},
{
closed = 1;
nodes = (
"412 535 LINE",
"427 610 LINE",
"55 610 LINE",
"40 535 LINE"
);
}
);
width = 675;
}
);
unicode = 112C1;
category = Letter;
},
{
glyphname = u112C2;
lastChange = "2018-06-07 20:09:47 +0000";
layers = (
{
anchors = (
{
name = Anchor11;
position = "{544, 680}";
},
{
name = Anchor4;
position = "{408, 0}";
},
{
name = Anchor6;
position = "{540, 580}";
},
{
name = Anchor9;
position = "{400, 680}";
}
);
layerId = UUID0;
paths = (
{
closed = 1;
nodes = (
"340 -10 OFFCURVE",
"389 72 OFFCURVE",
"389 162 CURVE SMOOTH",
"389 271 OFFCURVE",
"307 364 OFFCURVE",
"145 364 CURVE",
"122 291 LINE",
"253 291 OFFCURVE",
"306 232 OFFCURVE",
"306 161 CURVE SMOOTH",
"306 113 OFFCURVE",
"285 70 OFFCURVE",
"229 70 CURVE SMOOTH",
"135 70 OFFCURVE",
"126 162 OFFCURVE",
"126 217 CURVE SMOOTH",
"126 400 OFFCURVE",
"201 540 OFFCURVE",
"419 540 CURVE SMOOTH",
"559 540 OFFCURVE",
"624 476 OFFCURVE",
"624 400 CURVE SMOOTH",
"624 338 OFFCURVE",
"588 292 OFFCURVE",
"546 252 CURVE SMOOTH",
"504 212 OFFCURVE",
"470 170 OFFCURVE",
"470 113 CURVE SMOOTH",
"470 20 OFFCURVE",
"541 0 OFFCURVE",
"629 0 CURVE SMOOTH",
"705 0 LINE",
"717 75 LINE",
"641 75 LINE SMOOTH",
"590 75 OFFCURVE",
"556 78 OFFCURVE",
"556 119 CURVE SMOOTH",
"556 153 OFFCURVE",
"582 181 OFFCURVE",
"615 214 CURVE SMOOTH",
"660 259 OFFCURVE",
"710 310 OFFCURVE",
"710 405 CURVE SMOOTH",
"710 533 OFFCURVE",
"596 620 OFFCURVE",
"421 620 CURVE SMOOTH",
"156 620 OFFCURVE",
"41 431 OFFCURVE",
"41 220 CURVE SMOOTH",
"41 121 OFFCURVE",
"71 -10 OFFCURVE",
"226 -10 CURVE SMOOTH"
);
}
);
width = 750;
}
);
unicode = 112C2;
category = Letter;
},
{
glyphname = u112C3;
lastChange = "2018-06-07 20:09:47 +0000";
layers = (
{
anchors = (
{
name = Anchor11;
position = "{774, 680}";
},
{
name = Anchor4;
position = "{450, 0}";
},
{
name = Anchor6;
position = "{871, 600}";
},
{
name = Anchor9;
position = "{435, 680}";
}
);
layerId = UUID0;
paths = (
{
closed = 1;
nodes = (
"888 -10 OFFCURVE",
"940 78 OFFCURVE",
"940 169 CURVE SMOOTH",
"940 251 OFFCURVE",
"898 362 OFFCURVE",
"744 362 CURVE SMOOTH",
"594 362 OFFCURVE",
"466 271 OFFCURVE",
"395 111 CURVE",
"420 116 LINE",
"413 485 LINE",
"344 500 LINE",
"150 118 LINE",
"171 54 LINE",
"171 444 LINE SMOOTH",
"171 546 OFFCURVE",
"141 609 OFFCURVE",
"29 620 CURVE",
"10 546 LINE",
"58 543 OFFCURVE",
"88 514 OFFCURVE",
"88 458 CURVE SMOOTH",
"88 0 LINE",
"165 0 LINE",
"359 374 LINE",
"339 384 LINE",
"347 0 LINE",
"413 0 LINE",
"489 188 OFFCURVE",
"604 285 OFFCURVE",
"732 285 CURVE SMOOTH",
"822 285 OFFCURVE",
"857 243 OFFCURVE",
"857 176 CURVE SMOOTH",
"857 117 OFFCURVE",
"830 70 OFFCURVE",
"766 70 CURVE SMOOTH",
"682 70 OFFCURVE",
"662 153 OFFCURVE",
"662 228 CURVE SMOOTH",
"662 411 OFFCURVE",
"782 540 OFFCURVE",
"974 540 CURVE",
"991 620 LINE",
"746 620 OFFCURVE",
"579 455 OFFCURVE",
"579 220 CURVE SMOOTH",
"579 81 OFFCURVE",
"638 -10 OFFCURVE",
"764 -10 CURVE SMOOTH"
);
}
);
width = 1011;
}
);
unicode = 112C3;
category = Letter;
},
{
glyphname = u112C4;
lastChange = "2018-06-07 20:09:47 +0000";
layers = (
{
anchors = (
{
name = Anchor11;
position = "{564, 680}";
},
{
name = Anchor4;
position = "{410, 0}";
},
{
name = Anchor6;
position = "{550, 580}";
},
{
name = Anchor9;
position = "{421, 680}";
}
);
layerId = UUID0;
paths = (
{
closed = 1;
nodes = (
"339 -10 OFFCURVE",
"388 72 OFFCURVE",
"388 162 CURVE SMOOTH",
"388 271 OFFCURVE",
"306 364 OFFCURVE",
"144 364 CURVE",
"121 291 LINE",
"252 291 OFFCURVE",
"305 232 OFFCURVE",
"305 161 CURVE SMOOTH",
"305 113 OFFCURVE",
"284 70 OFFCURVE",
"228 70 CURVE SMOOTH",
"134 70 OFFCURVE",
"125 162 OFFCURVE",
"125 217 CURVE SMOOTH",
"125 400 OFFCURVE",
"199 540 OFFCURVE",
"417 540 CURVE SMOOTH",
"560 540 OFFCURVE",
"624 477 OFFCURVE",
"624 412 CURVE SMOOTH",
"624 365 OFFCURVE",
"587 331 OFFCURVE",
"541 292 CURVE SMOOTH",
"490 248 OFFCURVE",
"443 204 OFFCURVE",
"443 133 CURVE SMOOTH",
"443 66 OFFCURVE",
"482 -10 OFFCURVE",
"600 -10 CURVE SMOOTH",
"709 -10 OFFCURVE",
"767 54 OFFCURVE",
"767 141 CURVE SMOOTH",
"767 222 OFFCURVE",
"718 287 OFFCURVE",
"616 304 CURVE",
"545 239 LINE",
"648 237 OFFCURVE",
"682 195 OFFCURVE",
"682 143 CURVE SMOOTH",
"682 93 OFFCURVE",
"647 70 OFFCURVE",
"601 70 CURVE SMOOTH",
"551 70 OFFCURVE",
"528 98 OFFCURVE",
"528 137 CURVE SMOOTH",
"528 186 OFFCURVE",
"564 216 OFFCURVE",
"617 259 CURVE SMOOTH",
"647 283 OFFCURVE",
"710 334 OFFCURVE",
"710 419 CURVE SMOOTH",
"710 534 OFFCURVE",
"596 620 OFFCURVE",
"419 620 CURVE SMOOTH",
"154 620 OFFCURVE",
"40 431 OFFCURVE",
"40 220 CURVE SMOOTH",
"40 121 OFFCURVE",
"70 -10 OFFCURVE",
"225 -10 CURVE SMOOTH"
);
}
);
width = 805;
}
);
unicode = 112C4;
category = Letter;
},
{
glyphname = u112C6;
lastChange = "2018-06-07 20:09:47 +0000";
layers = (
{
anchors = (
{
name = Anchor11;
position = "{394, 680}";
},
{
name = Anchor4;
position = "{294, 0}";
},
{
name = Anchor6;
position = "{411, 600}";
},
{
name = Anchor9;
position = "{302, 680}";
}
);
layerId = UUID0;
paths = (
{
closed = 1;
nodes = (
"507 0 LINE",
"520 75 LINE",
"344 75 LINE SMOOTH",
"244 75 OFFCURVE",
"135 120 OFFCURVE",
"135 276 CURVE SMOOTH",
"135 435 OFFCURVE",
"269 522 OFFCURVE",
"406 535 CURVE",
"480 535 LINE",
"495 610 LINE",
"93 610 LINE",
"78 535 LINE",
"233 535 LINE",
"116 484 OFFCURVE",
"50 389 OFFCURVE",
"50 276 CURVE SMOOTH",
"50 87 OFFCURVE",
"171 0 OFFCURVE",
"336 0 CURVE SMOOTH"
);
}
);
width = 550;
}
);
leftMetricsKey = "=|u112BE";
unicode = 112C6;
category = Letter;
},
{
glyphname = u112C7;
lastChange = "2018-06-07 20:09:47 +0000";
layers = (
{
anchors = (
{
name = Anchor11;
position = "{494, 680}";
},
{
name = Anchor4;
position = "{343, 0}";
},
{
name = Anchor6;
position = "{475, 580}";
},
{
name = Anchor9;
position = "{372, 680}";
}
);
layerId = UUID0;
paths = (
{
closed = 1;
nodes = (
"557 0 LINE",
"570 75 LINE",
"396 75 LINE SMOOTH",
"202 75 OFFCURVE",
"135 178 OFFCURVE",
"135 295 CURVE SMOOTH",
"135 431 OFFCURVE",
"227 540 OFFCURVE",
"382 540 CURVE SMOOTH",
"452 540 OFFCURVE",
"515 518 OFFCURVE",
"515 466 CURVE SMOOTH",
"515 414 OFFCURVE",
"467 399 OFFCURVE",
"371 399 CURVE SMOOTH",
"309 399 OFFCURVE",
"223 407 OFFCURVE",
"150 457 CURVE",
"121 389 LINE",
"192 340 OFFCURVE",
"309 324 OFFCURVE",
"376 324 CURVE SMOOTH",
"487 324 OFFCURVE",
"600 354 OFFCURVE",
"600 466 CURVE SMOOTH",
"600 569 OFFCURVE",
"503 620 OFFCURVE",
"382 620 CURVE SMOOTH",
"178 620 OFFCURVE",
"50 475 OFFCURVE",
"50 287 CURVE SMOOTH",
"50 93 OFFCURVE",
"185 0 OFFCURVE",
"376 0 CURVE SMOOTH"
);
}
);
width = 640;
}
);
leftMetricsKey = "=|u112BE";
unicode = 112C7;
category = Letter;
},
{
glyphname = u112C8;
lastChange = "2018-06-07 20:09:47 +0000";
layers = (
{
anchors = (
{
name = Anchor11;
position = "{454, 680}";
},
{
name = Anchor4;
position = "{345, 0}";
},
{
name = Anchor6;
position = "{400, 580}";
},
{
name = Anchor9;
position = "{302, 680}";
}
);
layerId = UUID0;
paths = (
{
closed = 1;
nodes = (
"500 498 LINE",
"440 542 LINE",
"135 341 LINE",
"173 278 LINE"
);
},
{
closed = 1;
nodes = (
"555 352 LINE",
"542 429 LINE",
"211 215 LINE",
"249 152 LINE"
);
},
{
closed = 1;
nodes = (
"473 -10 OFFCURVE",
"597 119 OFFCURVE",
"597 313 CURVE SMOOTH",
"597 513 OFFCURVE",
"463 620 OFFCURVE",
"294 620 CURVE SMOOTH",
"178 620 OFFCURVE",
"95 573 OFFCURVE",
"38 508 CURVE",
"94 451 LINE",
"150 513 OFFCURVE",
"215 541 OFFCURVE",
"293 541 CURVE SMOOTH",
"429 541 OFFCURVE",
"513 452 OFFCURVE",
"513 312 CURVE SMOOTH",
"513 165 OFFCURVE",
"423 69 OFFCURVE",
"290 69 CURVE SMOOTH",
"265 69 OFFCURVE",
"237 71 OFFCURVE",
"210 77 CURVE",
"210 0 LINE",
"239 -7 OFFCURVE",
"265 -10 OFFCURVE",
"293 -10 CURVE SMOOTH"
);
}
);
width = 647;
}
);
rightMetricsKey = u112BE;
unicode = 112C8;
category = Letter;
},
{
glyphname = u112C9;
lastChange = "2018-06-07 20:09:47 +0000";
layers = (
{
anchors = (
{
name = Anchor11;
position = "{304, 680}";
},
{
name = Anchor4;
position = "{235, 0}";
},
{
name = Anchor6;
position = "{372, 600}";
},
{
name = Anchor9;
position = "{253, 680}";
}
);
layerId = UUID0;
paths = (
{
closed = 1;
nodes = (
"433 0 LINE",
"448 75 LINE",
"135 75 LINE",
"287 293 LINE",
"287 313 LINE",
"133 535 LINE",
"428 535 LINE",
"443 610 LINE",
"40 610 LINE",
"30 548 LINE",
"201 302 LINE",
"31 66 LINE",
"41 0 LINE"
);
}
);
width = 468;
}
);
unicode = 112C9;
category = Letter;
},
{
glyphname = u112CA;
lastChange = "2018-06-07 20:09:47 +0000";
layers = (
{
anchors = (
{
name = Anchor11;
position = "{324, 680}";
},
{
name = Anchor4;
position = "{256, 0}";
},
{
name = Anchor6;
position = "{338, 580}";
},
{
name = Anchor9;
position = "{253, 680}";
}
);
layerId = UUID0;
paths = (
{
closed = 1;
nodes = (
"384 -10 OFFCURVE",
"469 54 OFFCURVE",
"469 183 CURVE SMOOTH",
"469 248 OFFCURVE",
"447 285 OFFCURVE",
"404 316 CURVE",
"437 343 OFFCURVE",
"459 381 OFFCURVE",
"459 443 CURVE SMOOTH",
"459 575 OFFCURVE",
"360 610 OFFCURVE",
"246 610 CURVE SMOOTH",
"106 610 LINE",
"91 535 LINE",
"245 535 LINE SMOOTH",
"324 535 OFFCURVE",
"374 511 OFFCURVE",
"374 445 CURVE SMOOTH",
"374 398 OFFCURVE",
"348 353 OFFCURVE",
"244 353 CURVE SMOOTH",
"218 353 OFFCURVE",
"164 356 OFFCURVE",
"140 362 CURVE",
"129 283 LINE",
"177 275 OFFCURVE",
"219 273 OFFCURVE",
"257 273 CURVE SMOOTH",
"283 273 OFFCURVE",
"295 274 OFFCURVE",
"308 276 CURVE",
"361 260 OFFCURVE",
"384 229 OFFCURVE",
"384 181 CURVE SMOOTH",
"384 93 OFFCURVE",
"309 70 OFFCURVE",
"236 70 CURVE SMOOTH",
"182 70 OFFCURVE",
"109 86 OFFCURVE",
"70 110 CURVE",
"40 37 LINE",
"95 11 OFFCURVE",
"165 -10 OFFCURVE",
"240 -10 CURVE SMOOTH"
);
}
);
width = 519;
}
);
unicode = 112CA;
category = Letter;
},
{
glyphname = u112CB;
lastChange = "2018-06-07 20:09:47 +0000";
layers = (
{
anchors = (
{
name = Anchor11;
position = "{544, 680}";
},
{
name = Anchor4;
position = "{365, 0}";
},
{
name = Anchor6;
position = "{402, 600}";
},
{
name = Anchor9;
position = "{316, 680}";
}
);
layerId = UUID0;
paths = (
{
closed = 1;
nodes = (
"565 -10 OFFCURVE",
"717 79 OFFCURVE",
"717 269 CURVE SMOOTH",
"717 377 OFFCURVE",
"663 440 OFFCURVE",
"562 440 CURVE SMOOTH",
"465 440 OFFCURVE",
"407 376 OFFCURVE",
"407 291 CURVE SMOOTH",
"407 205 OFFCURVE",
"464 146 OFFCURVE",
"550 146 CURVE SMOOTH",
"591 146 OFFCURVE",
"620 156 OFFCURVE",
"641 166 CURVE",
"654 239 LINE",
"627 220 OFFCURVE",
"610 211 OFFCURVE",
"579 211 CURVE SMOOTH",
"526 211 OFFCURVE",
"493 239 OFFCURVE",
"493 288 CURVE SMOOTH",
"493 333 OFFCURVE",
"520 362 OFFCURVE",
"563 362 CURVE SMOOTH",
"610 362 OFFCURVE",
"636 327 OFFCURVE",
"636 262 CURVE SMOOTH",
"636 104 OFFCURVE",
"498 65 OFFCURVE",
"377 65 CURVE SMOOTH",
"220 65 OFFCURVE",
"135 143 OFFCURVE",
"135 275 CURVE SMOOTH",
"135 430 OFFCURVE",
"258 519 OFFCURVE",
"406 535 CURVE",
"480 535 LINE",
"495 610 LINE",
"93 610 LINE",
"78 535 LINE",
"235 535 LINE",
"114 479 OFFCURVE",
"50 397 OFFCURVE",
"50 272 CURVE SMOOTH",
"50 102 OFFCURVE",
"161 -10 OFFCURVE",
"368 -10 CURVE SMOOTH"
);
}
);
width = 747;
}
);
leftMetricsKey = "=|u112BE";
unicode = 112CB;
category = Letter;
},
{
glyphname = u112CC;
lastChange = "2018-06-07 20:09:47 +0000";
layers = (
{
anchors = (
{
name = Anchor11;
position = "{534, 680}";
},
{
name = Anchor4;
position = "{380, -200}";
},
{
name = Anchor6;
position = "{565, 620}";
},
{
name = Anchor9;
position = "{351, 680}";
}
);
layerId = UUID0;
paths = (
{
closed = 1;
nodes = (
"530 -178 LINE",
"395 -129 OFFCURVE",
"265 -61 OFFCURVE",
"170 24 CURVE",
"170 610 LINE",
"85 620 LINE",
"85 -4 LINE",
"196 -106 OFFCURVE",
"354 -197 OFFCURVE",
"518 -249 CURVE"
);
},
{
closed = 1;
nodes = (
"403 0 LINE",
"403 610 LINE",
"318 620 LINE",
"318 0 LINE"
);
},
{
closed = 1;
nodes = (
"633 0 LINE",
"633 610 LINE",
"548 620 LINE",
"548 0 LINE"
);
}
);
width = 727;
}
);
leftMetricsKey = u112E0;
rightMetricsKey = u112E0;
unicode = 112CC;
category = Letter;
},
{
glyphname = u112CD;
lastChange = "2018-06-07 20:09:47 +0000";
layers = (
{
anchors = (
{
name = Anchor11;
position = "{444, 680}";
},
{
name = Anchor4;
position = "{308, 0}";
},
{
name = Anchor6;
position = "{399, 580}";
},
{
name = Anchor9;
position = "{308, 680}";
}
);
layerId = UUID0;
paths = (
{
closed = 1;
nodes = (
"448 -10 OFFCURVE",
"604 87 OFFCURVE",
"604 296 CURVE SMOOTH",
"604 468 OFFCURVE",
"489 620 OFFCURVE",
"280 620 CURVE SMOOTH",
"162 620 OFFCURVE",
"64 572 OFFCURVE",
"64 466 CURVE SMOOTH",
"64 353 OFFCURVE",
"175 316 OFFCURVE",
"258 316 CURVE SMOOTH",
"375 316 OFFCURVE",
"461 374 OFFCURVE",
"500 440 CURVE",
"465 503 LINE",
"404 432 OFFCURVE",
"341 396 OFFCURVE",
"255 396 CURVE SMOOTH",
"192 396 OFFCURVE",
"149 425 OFFCURVE",
"149 469 CURVE SMOOTH",
"149 523 OFFCURVE",
"214 540 OFFCURVE",
"279 540 CURVE SMOOTH",
"444 540 OFFCURVE",
"519 416 OFFCURVE",
"519 299 CURVE SMOOTH",
"519 177 OFFCURVE",
"438 70 OFFCURVE",
"274 70 CURVE SMOOTH",
"191 70 OFFCURVE",
"130 100 OFFCURVE",
"80 144 CURVE",
"30 87 LINE",
"92 21 OFFCURVE",
"176 -10 OFFCURVE",
"271 -10 CURVE SMOOTH"
);
}
);
width = 654;
}
);
rightMetricsKey = u112BE;
unicode = 112CD;
category = Letter;
},
{
glyphname = u112CE;
lastChange = "2018-06-07 20:09:47 +0000";
layers = (
{
anchors = (
{
name = Anchor11;
position = "{614, 680}";
},
{
name = Anchor4;
position = "{401, 0}";
},
{
name = Anchor6;
position = "{671, 602}";
},
{
name = Anchor9;
position = "{400, 680}";
}
);
layerId = UUID0;
paths = (
{
closed = 1;
nodes = (
"822 65 LINE",
"748 97 OFFCURVE",
"739 111 OFFCURVE",
"739 160 CURVE SMOOTH",
"739 594 LINE",
"666 620 LINE",
"449 227 LINE",
"434 594 LINE",
"362 620 LINE",
"168 277 LINE",
"168 594 LINE",
"85 620 LINE",
"85 150 LINE",
"174 140 LINE",
"362 474 LINE",
"375 95 LINE",
"460 85 LINE",
"655 456 LINE",
"655 140 LINE SMOOTH",
"655 78 OFFCURVE",
"676 25 OFFCURVE",
"800 -10 CURVE"
);
}
);
width = 842;
}
);
leftMetricsKey = u112E0;
unicode = 112CE;
category = Letter;
},
{
glyphname = u112CF;
lastChange = "2018-06-07 20:09:47 +0000";
layers = (
{
anchors = (
{
name = Anchor11;
position = "{534, 680}";
},
{
name = Anchor4;
position = "{380, 0}";
},
{
name = Anchor6;
position = "{490, 580}";
},
{
name = Anchor9;
position = "{365, 680}";
}
);
layerId = UUID0;
paths = (
{
closed = 1;
nodes = (
"571 86 LINE",
"629 142 OFFCURVE",
"677 236 OFFCURVE",
"677 343 CURVE SMOOTH",
"677 521 OFFCURVE",
"546 620 OFFCURVE",
"377 620 CURVE SMOOTH",
"207 620 OFFCURVE",
"40 513 OFFCURVE",
"40 317 CURVE SMOOTH",
"40 210 OFFCURVE",
"99 150 OFFCURVE",
"191 150 CURVE SMOOTH",
"292 150 OFFCURVE",
"347 216 OFFCURVE",
"347 301 CURVE SMOOTH",
"347 387 OFFCURVE",
"300 450 OFFCURVE",
"213 450 CURVE SMOOTH",
"162 450 OFFCURVE",
"131 433 OFFCURVE",
"111 413 CURVE",
"102 350 LINE",
"120 365 OFFCURVE",
"155 380 OFFCURVE",
"187 380 CURVE SMOOTH",
"229 380 OFFCURVE",
"264 355 OFFCURVE",
"264 304 CURVE SMOOTH",
"264 257 OFFCURVE",
"239 230 OFFCURVE",
"196 230 CURVE SMOOTH",
"149 230 OFFCURVE",
"125 256 OFFCURVE",
"125 319 CURVE SMOOTH",
"125 449 OFFCURVE",
"228 545 OFFCURVE",
"372 545 CURVE SMOOTH",
"498 545 OFFCURVE",
"592 476 OFFCURVE",
"592 341 CURVE SMOOTH",
"592 223 OFFCURVE",
"520 108 OFFCURVE",
"443 79 CURVE"
);
},
{
closed = 1;
nodes = (
"777 50 LINE",
"728 78 OFFCURVE",
"639 97 OFFCURVE",
"541 97 CURVE SMOOTH",
"459 97 OFFCURVE",
"405 84 OFFCURVE",
"363 67 CURVE",
"390 -10 LINE",
"443 6 OFFCURVE",
"486 14 OFFCURVE",
"545 14 CURVE SMOOTH",
"632 14 OFFCURVE",
"700 -2 OFFCURVE",
"750 -26 CURVE"
);
}
);
width = 767;
}
);
unicode = 112CF;
category = Letter;
},
{
glyphname = u112D0;
lastChange = "2018-06-07 20:09:47 +0000";
layers = (
{
anchors = (
{
name = Anchor11;
position = "{464, 680}";
},
{
name = Anchor4;
position = "{320, 0}";
},
{
name = Anchor6;
position = "{405, 580}";
},
{
name = Anchor9;
position = "{308, 680}";
}
);
layerId = UUID0;
paths = (
{
closed = 1;
nodes = (
"623 -10 OFFCURVE",
"646 -7 OFFCURVE",
"670 -1 CURVE",
"682 76 LINE",
"671 74 OFFCURVE",
"633 70 OFFCURVE",
"613 70 CURVE SMOOTH",
"546 70 OFFCURVE",
"504 119 OFFCURVE",
"464 170 CURVE SMOOTH",
"397 256 OFFCURVE",
"338 331 OFFCURVE",
"233 331 CURVE SMOOTH",
"153 331 OFFCURVE",
"65 287 OFFCURVE",
"65 178 CURVE SMOOTH",
"65 86 OFFCURVE",
"128 25 OFFCURVE",
"246 25 CURVE SMOOTH",
"402 25 OFFCURVE",
"580 133 OFFCURVE",
"580 348 CURVE SMOOTH",
"580 538 OFFCURVE",
"441 620 OFFCURVE",
"280 620 CURVE SMOOTH",
"199 620 OFFCURVE",
"109 599 OFFCURVE",
"30 552 CURVE",
"66 486 LINE",
"130 522 OFFCURVE",
"204 540 OFFCURVE",
"279 540 CURVE SMOOTH",
"435 540 OFFCURVE",
"495 452 OFFCURVE",
"495 348 CURVE SMOOTH",
"495 176 OFFCURVE",
"348 105 OFFCURVE",
"248 105 CURVE SMOOTH",
"176 105 OFFCURVE",
"150 138 OFFCURVE",
"150 179 CURVE SMOOTH",
"150 225 OFFCURVE",
"183 251 OFFCURVE",
"230 251 CURVE SMOOTH",
"293 251 OFFCURVE",
"329 203 OFFCURVE",
"373 145 CURVE SMOOTH",
"456 37 OFFCURVE",
"504 -10 OFFCURVE",
"600 -10 CURVE SMOOTH"
);
}
);
width = 702;
}
);
unicode = 112D0;
category = Letter;
},
{
glyphname = u112D1;
lastChange = "2018-06-07 20:09:47 +0000";
layers = (
{
anchors = (
{
name = Anchor11;
position = "{544, 680}";
},
{
name = Anchor4;
position = "{295, 0}";
},
{
name = Anchor6;
position = "{697, 585}";
},
{
name = Anchor9;
position = "{400, 680}";
}
);
layerId = UUID0;
paths = (
{
closed = 1;
nodes = (
"438 132 OFFCURVE",
"623 297 OFFCURVE",
"765 574 CURVE",
"691 615 LINE",
"591 405 OFFCURVE",
"415 210 OFFCURVE",
"231 79 CURVE",
"185 164 OFFCURVE",
"119 369 OFFCURVE",
"93 497 CURVE",
"10 480 LINE",
"27 379 OFFCURVE",
"108 123 OFFCURVE",
"169 9 CURVE",
"240 -10 LINE"
);
}
);
width = 776;
}
);
unicode = 112D1;
category = Letter;
},
{
glyphname = u112D2;
lastChange = "2018-06-07 20:09:47 +0000";
layers = (
{
anchors = (
{
name = Anchor11;
position = "{404, 680}";
},
{
name = Anchor4;
position = "{301, 0}";
},
{
name = Anchor6;
position = "{411, 610}";
},
{
name = Anchor9;
position = "{288, 680}";
}
);
layerId = UUID0;
paths = (
{
closed = 1;
nodes = (
"521 -10 OFFCURVE",
"533 -8 OFFCURVE",
"548 -4 CURVE",
"556 74 LINE",
"546 71 OFFCURVE",
"534 70 OFFCURVE",
"526 70 CURVE SMOOTH",
"484 70 OFFCURVE",
"479 96 OFFCURVE",
"479 135 CURVE SMOOTH",
"479 608 LINE",
"412 620 LINE",
"369 584 OFFCURVE",
"276 577 OFFCURVE",
"229 577 CURVE SMOOTH",
"161 577 OFFCURVE",
"103 594 OFFCURVE",
"46 620 CURVE",
"10 549 LINE",
"81 514 OFFCURVE",
"142 497 OFFCURVE",
"229 497 CURVE SMOOTH",
"279 497 OFFCURVE",
"341 502 OFFCURVE",
"395 527 CURVE",
"395 124 LINE SMOOTH",
"395 51 OFFCURVE",
"410 -10 OFFCURVE",
"504 -10 CURVE SMOOTH"
);
}
);
width = 576;
}
);
unicode = 112D2;
category = Letter;
},
{
glyphname = u112D3;
lastChange = "2018-06-07 20:09:47 +0000";
layers = (
{
anchors = (
{
name = Anchor11;
position = "{504, 680}";
},
{
name = Anchor4;
position = "{302, 0}";
},
{
name = Anchor6;
position = "{438, 570}";
},
{
name = Anchor8;
position = "{322, 0}";
}
);
layerId = UUID0;
paths = (
{
closed = 1;
nodes = (
"518 -2 OFFCURVE",
"643 117 OFFCURVE",
"643 304 CURVE SMOOTH",
"643 489 OFFCURVE",
"515 610 OFFCURVE",
"309 610 CURVE SMOOTH",
"198 610 LINE SMOOTH",
"114 610 OFFCURVE",
"72 620 OFFCURVE",
"44 632 CURVE",
"20 564 LINE",
"65 539 OFFCURVE",
"120 535 OFFCURVE",
"192 535 CURVE SMOOTH",
"298 535 LINE SMOOTH",
"462 535 OFFCURVE",
"558 447 OFFCURVE",
"558 307 CURVE SMOOTH",
"558 200 OFFCURVE",
"501 78 OFFCURVE",
"358 69 CURVE",
"371 -10 LINE"
);
},
{
closed = 1;
nodes = (
"563 460 LINE",
"510 519 LINE",
"83 124 LINE",
"135 64 LINE"
);
}
);
width = 693;
}
);
rightMetricsKey = u112BE;
unicode = 112D3;
category = Letter;
},
{
glyphname = u112D4;
lastChange = "2018-06-07 20:09:47 +0000";
layers = (
{
anchors = (
{
name = Anchor11;
position = "{644, 680}";
},
{
name = Anchor4;
position = "{373, 0}";
},
{
name = Anchor6;
position = "{802, 586}";
},
{
name = Anchor9;
position = "{442, 680}";
}
);
layerId = UUID0;
paths = (
{
closed = 1;
nodes = (
"227 0 LINE",
"421 404 LINE",
"475 0 LINE",
"535 0 LINE",
"742 380 LINE SMOOTH",
"789 466 OFFCURVE",
"815 505 OFFCURVE",
"879 545 CURVE",
"856 620 LINE",
"775 595 OFFCURVE",
"729 526 OFFCURVE",
"685 442 CURVE SMOOTH",
"529 146 LINE",
"482 531 LINE",
"413 551 LINE",
"218 143 LINE",
"171 389 LINE SMOOTH",
"152 487 OFFCURVE",
"128 575 OFFCURVE",
"78 620 CURVE",
"20 567 LINE",
"52 535 OFFCURVE",
"75 477 OFFCURVE",
"96 367 CURVE SMOOTH",
"167 0 LINE"
);
}
);
width = 879;
}
);
unicode = 112D4;
category = Letter;
},
{
glyphname = u112D5;
lastChange = "2018-06-07 20:09:47 +0000";
layers = (
{
anchors = (
{
name = Anchor11;
position = "{464, 680}";
},
{
name = Anchor4;
position = "{377, 0}";
},
{
name = Anchor6;
position = "{469, 590}";
},
{
name = Anchor9;
position = "{365, 680}";
}
);
layerId = UUID0;
paths = (
{
closed = 1;
nodes = (
"523 -10 OFFCURVE",
"606 72 OFFCURVE",
"606 184 CURVE SMOOTH",
"606 258 OFFCURVE",
"573 326 OFFCURVE",
"489 352 CURVE SMOOTH",
"413 376 OFFCURVE",
"361 403 OFFCURVE",
"361 465 CURVE SMOOTH",
"361 512 OFFCURVE",
"391 540 OFFCURVE",
"431 540 CURVE SMOOTH",
"479 540 OFFCURVE",
"501 506 OFFCURVE",
"501 461 CURVE SMOOTH",
"501 419 OFFCURVE",
"471 359 OFFCURVE",
"382 359 CURVE SMOOTH",
"281 359 LINE SMOOTH",
"188 359 OFFCURVE",
"125 376 OFFCURVE",
"125 460 CURVE SMOOTH",
"125 491 OFFCURVE",
"136 535 OFFCURVE",
"168 586 CURVE",
"94 620 LINE",
"63 573 OFFCURVE",
"40 520 OFFCURVE",
"40 456 CURVE SMOOTH",
"40 309 OFFCURVE",
"149 284 OFFCURVE",
"266 284 CURVE SMOOTH",
"329 284 OFFCURVE",
"399 285 OFFCURVE",
"454 292 CURVE",
"535 333 OFFCURVE",
"585 394 OFFCURVE",
"585 468 CURVE SMOOTH",
"585 544 OFFCURVE",
"536 620 OFFCURVE",
"432 620 CURVE SMOOTH",
"338 620 OFFCURVE",
"278 558 OFFCURVE",
"278 467 CURVE SMOOTH",
"278 385 OFFCURVE",
"337 336 OFFCURVE",
"423 297 CURVE",
"486 280 OFFCURVE",
"521 253 OFFCURVE",
"521 184 CURVE SMOOTH",
"521 102 OFFCURVE",
"466 70 OFFCURVE",
"383 70 CURVE SMOOTH",
"304 70 OFFCURVE",
"239 105 OFFCURVE",
"204 132 CURVE",
"160 63 LINE",
"218 20 OFFCURVE",
"297 -10 OFFCURVE",
"378 -10 CURVE SMOOTH"
);
}
);
width = 656;
}
);
unicode = 112D5;
category = Letter;
},
{
glyphname = u112D6;
lastChange = "2018-06-07 20:09:47 +0000";
layers = (
{
anchors = (
{
name = Anchor11;
position = "{754, 680}";
},
{
name = Anchor4;
position = "{513, 0}";
},
{
name = Anchor6;
position = "{901, 600}";
},
{
name = Anchor9;
position = "{582, 680}";
}
);
layerId = UUID0;
paths = (
{
closed = 1;
nodes = (
"344 0 LINE",
"565 404 LINE",
"619 0 LINE",
"679 0 LINE",
"851 320 LINE SMOOTH",
"911 432 OFFCURVE",
"959 528 OFFCURVE",
"969 590 CURVE",
"891 620 LINE",
"880 555 OFFCURVE",
"840 458 OFFCURVE",
"783 352 CURVE SMOOTH",
"673 146 LINE",
"626 531 LINE",
"557 551 LINE",
"367 183 LINE",
"367 410 LINE SMOOTH",
"367 521 OFFCURVE",
"336 620 OFFCURVE",
"209 620 CURVE SMOOTH",
"93 620 OFFCURVE",
"40 544 OFFCURVE",
"40 452 CURVE SMOOTH",
"40 369 OFFCURVE",
"87 293 OFFCURVE",
"198 293 CURVE SMOOTH",
"241 293 OFFCURVE",
"275 303 OFFCURVE",
"309 320 CURVE",
"309 401 LINE",
"274 376 OFFCURVE",
"245 370 OFFCURVE",
"209 370 CURVE SMOOTH",
"154 370 OFFCURVE",
"123 405 OFFCURVE",
"123 457 CURVE SMOOTH",
"123 508 OFFCURVE",
"154 540 OFFCURVE",
"202 540 CURVE SMOOTH",
"272 540 OFFCURVE",
"283 479 OFFCURVE",
"283 400 CURVE SMOOTH",
"283 0 LINE"
);
}
);
width = 988;
}
);
unicode = 112D6;
category = Letter;
},
{
glyphname = u112D7;
lastChange = "2018-06-07 20:09:47 +0000";
layers = (
{
anchors = (
{
name = Anchor11;
position = "{454, 680}";
},
{
name = Anchor4;
position = "{300, 0}";
},
{
name = Anchor6;
position = "{420, 590}";
},
{
name = Anchor9;
position = "{400, 680}";
}
);
layerId = UUID0;
paths = (
{
closed = 1;
nodes = (
"150 224 LINE SMOOTH",
"185 408 OFFCURVE",
"290 535 OFFCURVE",
"374 535 CURVE SMOOTH",
"422 535 OFFCURVE",
"435 511 OFFCURVE",
"435 455 CURVE SMOOTH",
"435 413 OFFCURVE",
"421 354 OFFCURVE",
"405 300 CURVE SMOOTH",
"389 247 OFFCURVE",
"375 193 OFFCURVE",
"375 144 CURVE SMOOTH",
"375 41 OFFCURVE",
"430 -10 OFFCURVE",
"531 -10 CURVE SMOOTH",
"546 -10 OFFCURVE",
"558 -9 OFFCURVE",
"576 -7 CURVE",
"582 73 LINE",
"568 71 OFFCURVE",
"555 70 OFFCURVE",
"544 70 CURVE SMOOTH",
"500 70 OFFCURVE",
"459 91 OFFCURVE",
"459 152 CURVE SMOOTH",
"459 182 OFFCURVE",
"470 228 OFFCURVE",
"484 279 CURVE SMOOTH",
"501 342 OFFCURVE",
"519 413 OFFCURVE",
"519 470 CURVE SMOOTH",
"519 567 OFFCURVE",
"477 620 OFFCURVE",
"389 620 CURVE SMOOTH",
"299 620 OFFCURVE",
"224 545 OFFCURVE",
"176 462 CURVE",
"161 521 OFFCURVE",
"125 571 OFFCURVE",
"84 618 CURVE",
"26 556 LINE",
"73 504 OFFCURVE",
"99 460 OFFCURVE",
"99 399 CURVE SMOOTH",
"99 376 OFFCURVE",
"95 356 OFFCURVE",
"91 337 CURVE SMOOTH",
"22 0 LINE",
"105 -10 LINE"
);
}
);
width = 602;
}
);
leftMetricsKey = u112B0;
rightMetricsKey = u112B0;
unicode = 112D7;
category = Letter;
},
{
glyphname = u112D8;
lastChange = "2018-06-07 20:09:47 +0000";
layers = (
{
anchors = (
{
name = Anchor11;
position = "{634, 680}";
},
{
name = Anchor4;
position = "{422, 0}";
},
{
name = Anchor6;
position = "{558, 600}";
},
{
name = Anchor9;
position = "{435, 680}";
}
);
components = (
{
name = u112CA;
transform = "{1, 0, 0, 1, 15, 0}";
}
);
layerId = UUID0;
paths = (
{
closed = 1;
nodes = (
"787 -10 OFFCURVE",
"800 -9 OFFCURVE",
"815 -7 CURVE",
"824 73 LINE",
"808 71 OFFCURVE",
"793 70 OFFCURVE",
"781 70 CURVE SMOOTH",
"727 70 OFFCURVE",
"714 94 OFFCURVE",
"714 139 CURVE SMOOTH",
"714 157 OFFCURVE",
"717 228 OFFCURVE",
"721 297 CURVE SMOOTH",
"725 366 OFFCURVE",
"728 433 OFFCURVE",
"728 450 CURVE SMOOTH",
"728 570 OFFCURVE",
"654 610 OFFCURVE",
"551 610 CURVE SMOOTH",
"158 610 LINE",
"143 535 LINE",
"524 535 LINE SMOOTH",
"629 535 OFFCURVE",
"643 479 OFFCURVE",
"643 428 CURVE SMOOTH",
"643 421 OFFCURVE",
"641 381 OFFCURVE",
"637 304 CURVE SMOOTH",
"634 252 OFFCURVE",
"629 157 OFFCURVE",
"629 131 CURVE SMOOTH",
"629 39 OFFCURVE",
"668 -10 OFFCURVE",
"776 -10 CURVE SMOOTH"
);
}
);
width = 857;
}
);
unicode = 112D8;
category = Letter;
},
{
glyphname = u112D9;
lastChange = "2018-06-07 20:09:47 +0000";
layers = (
{
anchors = (
{
name = Anchor11;
position = "{400, 680}";
},
{
name = Anchor4;
position = "{260, 0}";
},
{
name = Anchor6;
position = "{360, 580}";
},
{
name = Anchor9;
position = "{280, 680}";
}
);
layerId = UUID0;
paths = (
{
closed = 1;
nodes = (
"505 29 LINE",
"456 127 OFFCURVE",
"402 199 OFFCURVE",
"307 241 CURVE",
"307 222 LINE",
"419 237 OFFCURVE",
"497 295 OFFCURVE",
"497 424 CURVE SMOOTH",
"497 603 OFFCURVE",
"343 610 OFFCURVE",
"244 610 CURVE SMOOTH",
"90 610 LINE",
"75 535 LINE",
"243 535 LINE SMOOTH",
"323 535 OFFCURVE",
"412 529 OFFCURVE",
"412 418 CURVE SMOOTH",
"412 308 OFFCURVE",
"325 294 OFFCURVE",
"243 294 CURVE SMOOTH",
"40 294 LINE",
"25 219 LINE",
"165 219 LINE",
"280 206 OFFCURVE",
"372 95 OFFCURVE",
"426 -10 CURVE"
);
}
);
width = 545;
}
);
unicode = 112D9;
category = Letter;
},
{
glyphname = u112DA;
lastChange = "2018-06-07 20:09:47 +0000";
layers = (
{
anchors = (
{
name = Anchor11;
position = "{444, 680}";
},
{
name = Anchor4;
position = "{305, 0}";
},
{
name = Anchor6;
position = "{350, 580}";
},
{
name = Anchor9;
position = "{266, 680}";
}
);
layerId = UUID0;
paths = (
{
closed = 1;
nodes = (
"425 238 OFFCURVE",
"492 305 OFFCURVE",
"492 404 CURVE SMOOTH",
"492 541 OFFCURVE",
"402 610 OFFCURVE",
"264 610 CURVE SMOOTH",
"158 610 LINE SMOOTH",
"118 610 OFFCURVE",
"89 617 OFFCURVE",
"66 626 CURVE",
"48 552 LINE",
"79 541 OFFCURVE",
"117 535 OFFCURVE",
"152 535 CURVE SMOOTH",
"250 535 LINE SMOOTH",
"352 535 OFFCURVE",
"407 494 OFFCURVE",
"407 400 CURVE SMOOTH",
"407 306 OFFCURVE",
"322 240 OFFCURVE",
"223 200 CURVE",
"351 191 LINE"
);
},
{
closed = 1;
nodes = (
"628 55 LINE",
"568 119 OFFCURVE",
"440 210 OFFCURVE",
"280 210 CURVE SMOOTH",
"175 210 OFFCURVE",
"86 187 OFFCURVE",
"35 168 CURVE",
"48 91 LINE",
"84 109 OFFCURVE",
"168 132 OFFCURVE",
"258 132 CURVE SMOOTH",
"403 132 OFFCURVE",
"504 73 OFFCURVE",
"584 -10 CURVE"
);
}
);
width = 638;
}
);
unicode = 112DA;
category = Letter;
},
{
glyphname = u112DB;
lastChange = "2018-06-07 20:09:47 +0000";
layers = (
{
anchors = (
{
name = Anchor11;
position = "{424, 680}";
},
{
name = Anchor4;
position = "{320, 0}";
},
{
name = Anchor6;
position = "{390, 580}";
},
{
name = Anchor9;
position = "{316, 680}";
}
);
layerId = UUID0;
paths = (
{
closed = 1;
nodes = (
"472 -10 OFFCURVE",
"575 121 OFFCURVE",
"575 305 CURVE SMOOTH",
"575 489 OFFCURVE",
"472 620 OFFCURVE",
"312 620 CURVE SMOOTH",
"152 620 OFFCURVE",
"50 489 OFFCURVE",
"50 305 CURVE SMOOTH",
"50 121 OFFCURVE",
"152 -10 OFFCURVE",
"312 -10 CURVE SMOOTH"
);
},
{
closed = 1;
nodes = (
"197 70 OFFCURVE",
"135 157 OFFCURVE",
"135 309 CURVE SMOOTH",
"135 461 OFFCURVE",
"197 540 OFFCURVE",
"312 540 CURVE SMOOTH",
"428 540 OFFCURVE",
"490 461 OFFCURVE",
"490 309 CURVE SMOOTH",
"490 157 OFFCURVE",
"428 70 OFFCURVE",
"312 70 CURVE SMOOTH"
);
}
);
width = 625;
}
);
unicode = 112DB;
category = Letter;
},
{
glyphname = u112DC;
lastChange = "2018-06-07 20:09:47 +0000";
layers = (
{
anchors = (
{
name = Anchor11;
position = "{574, 680}";
},
{
name = Anchor4;
position = "{394, 0}";
},
{
name = Anchor6;
position = "{549, 585}";
},
{
name = Anchor9;
position = "{344, 680}";
}
);
layerId = UUID0;
paths = (
{
closed = 1;
nodes = (
"722 -10 OFFCURVE",
"735 -9 OFFCURVE",
"750 -7 CURVE",
"759 74 LINE",
"743 72 OFFCURVE",
"724 70 OFFCURVE",
"712 70 CURVE SMOOTH",
"658 70 OFFCURVE",
"649 94 OFFCURVE",
"649 139 CURVE SMOOTH",
"649 566 LINE",
"607 610 LINE",
"188 610 LINE SMOOTH",
"135 610 OFFCURVE",
"99 627 OFFCURVE",
"76 643 CURVE",
"30 581 LINE",
"64 551 OFFCURVE",
"100 533 OFFCURVE",
"168 533 CURVE SMOOTH",
"564 533 LINE",
"564 131 LINE SMOOTH",
"564 29 OFFCURVE",
"603 -10 OFFCURVE",
"705 -10 CURVE SMOOTH"
);
},
{
closed = 1;
nodes = (
"384 -10 OFFCURVE",
"438 68 OFFCURVE",
"438 164 CURVE SMOOTH",
"438 260 OFFCURVE",
"384 327 OFFCURVE",
"283 327 CURVE SMOOTH",
"230 327 OFFCURVE",
"191 309 OFFCURVE",
"158 285 CURVE",
"158 199 LINE",
"199 233 OFFCURVE",
"229 247 OFFCURVE",
"270 247 CURVE SMOOTH",
"332 247 OFFCURVE",
"355 212 OFFCURVE",
"355 164 CURVE SMOOTH",
"355 113 OFFCURVE",
"330 70 OFFCURVE",
"271 70 CURVE SMOOTH",
"187 70 OFFCURVE",
"184 159 OFFCURVE",
"184 219 CURVE SMOOTH",
"184 580 LINE",
"99 593 LINE",
"99 216 LINE SMOOTH",
"99 83 OFFCURVE",
"141 -10 OFFCURVE",
"268 -10 CURVE SMOOTH"
);
}
);
width = 769;
}
);
unicode = 112DC;
category = Letter;
},
{
glyphname = u112DD;
lastChange = "2018-06-07 20:09:47 +0000";
layers = (
{
anchors = (
{
name = Anchor11;
position = "{436, 680}";
},
{
name = Anchor4;
position = "{339, 0}";
},
{
name = Anchor6;
position = "{431, 585}";
},
{
name = Anchor9;
position = "{320, 680}";
}
);
layerId = UUID0;
paths = (
{
closed = 1;
nodes = (
"604 -10 OFFCURVE",
"617 -9 OFFCURVE",
"632 -7 CURVE",
"641 74 LINE",
"625 72 OFFCURVE",
"606 70 OFFCURVE",
"594 70 CURVE SMOOTH",
"540 70 OFFCURVE",
"531 94 OFFCURVE",
"531 139 CURVE SMOOTH",
"531 566 LINE",
"489 610 LINE",
"188 610 LINE SMOOTH",
"135 610 OFFCURVE",
"99 627 OFFCURVE",
"76 643 CURVE",
"30 581 LINE",
"64 551 OFFCURVE",
"100 533 OFFCURVE",
"168 533 CURVE SMOOTH",
"446 533 LINE",
"446 131 LINE SMOOTH",
"446 29 OFFCURVE",
"485 -10 OFFCURVE",
"587 -10 CURVE SMOOTH"
);
},
{
closed = 1;
nodes = (
"252 -10 OFFCURVE",
"265 -9 OFFCURVE",
"280 -7 CURVE",
"289 74 LINE",
"273 72 OFFCURVE",
"254 70 OFFCURVE",
"242 70 CURVE SMOOTH",
"188 70 OFFCURVE",
"179 94 OFFCURVE",
"179 139 CURVE SMOOTH",
"179 553 LINE",
"94 553 LINE",
"94 131 LINE SMOOTH",
"94 29 OFFCURVE",
"133 -10 OFFCURVE",
"235 -10 CURVE SMOOTH"
);
}
);
width = 651;
}
);
leftMetricsKey = u112DC;
rightMetricsKey = u112DC;
unicode = 112DD;
category = Letter;
},
{
glyphname = u112DE;
lastChange = "2018-06-07 20:09:47 +0000";
layers = (
{
anchors = (
{
name = Anchor11;
position = "{464, 680}";
},
{
name = Anchor4;
position = "{310, 0}";
},
{
name = Anchor6;
position = "{408, 580}";
},
{
name = Anchor9;
position = "{312, 680}";
}
);
layerId = UUID0;
paths = (
{
closed = 1;
nodes = (
"150 218 OFFCURVE",
"250 248 OFFCURVE",
"315 276 CURVE SMOOTH",
"525 366 LINE",
"505 441 LINE",
"286 346 LINE SMOOTH",
"246 329 OFFCURVE",
"133 293 OFFCURVE",
"74 293 CURVE",
"74 218 LINE"
);
},
{
closed = 1;
nodes = (
"473 -10 OFFCURVE",
"597 119 OFFCURVE",
"597 313 CURVE SMOOTH",
"597 513 OFFCURVE",
"463 620 OFFCURVE",
"294 620 CURVE SMOOTH",
"178 620 OFFCURVE",
"95 573 OFFCURVE",
"38 508 CURVE",
"94 451 LINE",
"150 513 OFFCURVE",
"215 541 OFFCURVE",
"293 541 CURVE SMOOTH",
"429 541 OFFCURVE",
"513 452 OFFCURVE",
"513 312 CURVE SMOOTH",
"513 165 OFFCURVE",
"423 69 OFFCURVE",
"290 69 CURVE SMOOTH",
"265 69 OFFCURVE",
"237 71 OFFCURVE",
"210 77 CURVE",
"210 0 LINE",
"239 -7 OFFCURVE",
"265 -10 OFFCURVE",
"293 -10 CURVE SMOOTH"
);
}
);
width = 647;
}
);
rightMetricsKey = u112BE;
unicode = 112DE;
category = Letter;
},
{
glyphname = u112DF;
lastChange = "2021-12-15 12:37:44 +0000";
layers = (
{
anchors = (
{
name = _Anchor14;
position = "{0, 680}";
},
{
name = _Anchor9;
position = "{0, 680}";
}
);
layerId = UUID0;
paths = (
{
closed = 1;
nodes = (
"33 685 OFFCURVE",
"61 705 OFFCURVE",
"61 753 CURVE SMOOTH",
"61 802 OFFCURVE",
"33 820 OFFCURVE",
"-2 820 CURVE SMOOTH",
"-37 820 OFFCURVE",
"-63 802 OFFCURVE",
"-63 753 CURVE SMOOTH",
"-63 705 OFFCURVE",
"-37 685 OFFCURVE",
"-2 685 CURVE SMOOTH"
);
}
);
width = 0;
}
);
unicode = 112DF;
category = Mark;
subCategory = Nonspacing;
},
{
glyphname = u112E0;
lastChange = "2018-06-07 20:09:45 +0000";
layers = (
{
anchors = (
{
name = Anchor9;
position = "{-299, 680}";
}
);
layerId = UUID0;
paths = (
{
closed = 1;
nodes = (
"169 610 LINE",
"85 620 LINE",
"85 0 LINE",
"169 -10 LINE"
);
}
);
width = 263;
}
);
unicode = 112E0;
category = Letter;
},
{
glyphname = u112E1;
lastChange = "2018-06-07 20:09:45 +0000";
layers = (
{
anchors = (
{
name = Anchor9;
position = "{294, 870}";
}
);
layerId = UUID0;
paths = (
{
closed = 1;
nodes = (
"170 513 LINE SMOOTH",
"170 666 OFFCURVE",
"230 700 OFFCURVE",
"291 700 CURVE SMOOTH",
"386 700 OFFCURVE",
"420 623 OFFCURVE",
"452 540 CURVE",
"526 564 LINE",
"491 667 OFFCURVE",
"437 780 OFFCURVE",
"288 780 CURVE SMOOTH",
"145 780 OFFCURVE",
"85 672 OFFCURVE",
"85 522 CURVE SMOOTH",
"85 0 LINE",
"170 -10 LINE"
);
}
);
width = 262;
}
);
leftMetricsKey = u112E0;
unicode = 112E1;
category = Letter;
},
{
glyphname = u112E2;
lastChange = "2018-06-07 20:09:45 +0000";
layers = (
{
anchors = (
{
name = Anchor9;
position = "{-42, 870}";
}
);
layerId = UUID0;
paths = (
{
closed = 1;
nodes = (
"180 504 LINE SMOOTH",
"180 674 OFFCURVE",
"107 780 OFFCURVE",
"-42 780 CURVE SMOOTH",
"-159 780 OFFCURVE",
"-248 712 OFFCURVE",
"-294 561 CURVE",
"-221 535 LINE",
"-183 638 OFFCURVE",
"-146 700 OFFCURVE",
"-52 700 CURVE SMOOTH",
"33 700 OFFCURVE",
"95 655 OFFCURVE",
"95 494 CURVE SMOOTH",
"95 0 LINE",
"180 -10 LINE"
);
}
);
width = 274;
}
);
rightMetricsKey = u112E0;
unicode = 112E2;
category = Letter;
},
{
glyphname = u112E3;
lastChange = "2018-06-07 20:09:52 +0000";
layers = (
{
anchors = (
{
name = _Anchor16;
position = "{0, 0}";
},
{
name = _Anchor4;
position = "{0, 0}";
}
);
layerId = UUID0;
paths = (
{
closed = 1;
nodes = (
"73 -200 OFFCURVE",
"160 -175 OFFCURVE",
"235 -132 CURVE",
"199 -66 LINE",
"138 -100 OFFCURVE",
"63 -120 OFFCURVE",
"0 -120 CURVE SMOOTH",
"-64 -120 OFFCURVE",
"-138 -100 OFFCURVE",
"-199 -66 CURVE",
"-235 -132 LINE",
"-159 -176 OFFCURVE",
"-76 -200 OFFCURVE",
"0 -200 CURVE SMOOTH"
);
}
);
width = 0;
}
);
unicode = 112E3;
category = Mark;
subCategory = Nonspacing;
},
{
glyphname = u112E5;
lastChange = "2018-06-07 20:09:56 +0000";
layers = (
{
anchors = (
{
name = Anchor14;
position = "{245, 800}";
},
{
name = _Anchor6;
position = "{330, 590}";
}
);
layerId = UUID0;
paths = (
{
closed = 1;
nodes = (
"374 726 OFFCURVE",
"189 793 OFFCURVE",
"9 796 CURVE",
"-3 728 LINE",
"142 723 OFFCURVE",
"273 684 OFFCURVE",
"315 589 CURVE",
"398 579 LINE"
);
}
);
width = 0;
}
);
unicode = 112E5;
category = Mark;
subCategory = Nonspacing;
},
{
glyphname = u112E6;
lastChange = "2018-06-07 20:09:56 +0000";
layers = (
{
anchors = (
{
name = Anchor14;
position = "{350, 850}";
},
{
name = _Anchor6;
position = "{330, 590}";
}
);
layerId = UUID0;
paths = (
{
closed = 1;
nodes = (
"362 766 OFFCURVE",
"262 888 OFFCURVE",
"114 939 CURVE",
"74 881 LINE",
"163 846 OFFCURVE",
"220 801 OFFCURVE",
"261 742 CURVE",
"189 777 OFFCURVE",
"98 795 OFFCURVE",
"9 796 CURVE",
"-3 728 LINE",
"142 723 OFFCURVE",
"274 683 OFFCURVE",
"315 589 CURVE",
"398 579 LINE"
);
}
);
width = 0;
}
);
unicode = 112E6;
category = Mark;
subCategory = Nonspacing;
},
{
glyphname = u112E7;
lastChange = "2018-06-07 20:09:56 +0000";
layers = (
{
anchors = (
{
name = Anchor14;
position = "{283, 800}";
},
{
name = _Anchor6;
position = "{468, 585}";
}
);
layerId = UUID0;
paths = (
{
closed = 1;
nodes = (
"535 597 OFFCURVE",
"536 625 OFFCURVE",
"536 636 CURVE SMOOTH",
"536 724 OFFCURVE",
"472 771 OFFCURVE",
"391 771 CURVE SMOOTH",
"354 771 OFFCURVE",
"298 761 OFFCURVE",
"255 753 CURVE SMOOTH",
"216 746 OFFCURVE",
"176 739 OFFCURVE",
"148 739 CURVE SMOOTH",
"92 739 OFFCURVE",
"80 772 OFFCURVE",
"72 815 CURVE",
"0 802 LINE",
"0 677 OFFCURVE",
"88 668 OFFCURVE",
"146 668 CURVE SMOOTH",
"184 668 OFFCURVE",
"226 676 OFFCURVE",
"261 684 CURVE SMOOTH",
"300 693 OFFCURVE",
"340 700 OFFCURVE",
"369 700 CURVE SMOOTH",
"441 700 OFFCURVE",
"456 658 OFFCURVE",
"456 622 CURVE SMOOTH",
"456 613 OFFCURVE",
"455 601 OFFCURVE",
"452 590 CURVE",
"531 575 LINE"
);
}
);
width = 0;
}
);
unicode = 112E7;
category = Mark;
subCategory = Nonspacing;
},
{
glyphname = u112E8;
lastChange = "2018-06-07 20:09:49 +0000";
layers = (
{
anchors = (
{
name = Anchor14;
position = "{234, 800}";
},
{
name = _Anchor11;
position = "{390, 570}";
}
);
layerId = UUID0;
paths = (
{
closed = 1;
nodes = (
"485 556 OFFCURVE",
"531 604 OFFCURVE",
"531 676 CURVE SMOOTH",
"531 753 OFFCURVE",
"475 794 OFFCURVE",
"394 794 CURVE SMOOTH",
"347 794 OFFCURVE",
"294 780 OFFCURVE",
"257 770 CURVE SMOOTH",
"220 760 OFFCURVE",
"185 754 OFFCURVE",
"150 754 CURVE SMOOTH",
"92 754 OFFCURVE",
"79 782 OFFCURVE",
"71 825 CURVE",
"0 812 LINE",
"0 694 OFFCURVE",
"85 683 OFFCURVE",
"143 683 CURVE SMOOTH",
"191 683 OFFCURVE",
"236 691 OFFCURVE",
"277 706 CURVE",
"275 695 OFFCURVE",
"274 684 OFFCURVE",
"274 674 CURVE SMOOTH",
"274 601 OFFCURVE",
"321 556 OFFCURVE",
"402 556 CURVE SMOOTH"
);
},
{
closed = 1;
nodes = (
"368 627 OFFCURVE",
"348 647 OFFCURVE",
"348 682 CURVE SMOOTH",
"348 697 OFFCURVE",
"350 712 OFFCURVE",
"357 723 CURVE",
"371 726 OFFCURVE",
"384 728 OFFCURVE",
"397 728 CURVE SMOOTH",
"435 728 OFFCURVE",
"457 708 OFFCURVE",
"457 676 CURVE SMOOTH",
"457 647 OFFCURVE",
"437 627 OFFCURVE",
"404 627 CURVE SMOOTH"
);
}
);
width = 0;
}
);
unicode = 112E8;
category = Mark;
subCategory = Nonspacing;
},
{
glyphname = u112E9;
lastChange = "2018-06-07 20:09:52 +0000";
layers = (
{
anchors = (
{
name = Anchor16;
position = "{60, -110}";
},
{
name = _Anchor4;
position = "{60, 40}";
}
);
layerId = UUID0;
paths = (
{
closed = 1;
nodes = (
"96 -146 OFFCURVE",
"124 -126 OFFCURVE",
"124 -78 CURVE SMOOTH",
"124 -29 OFFCURVE",
"96 -11 OFFCURVE",
"61 -11 CURVE SMOOTH",
"26 -11 OFFCURVE",
"0 -29 OFFCURVE",
"0 -78 CURVE SMOOTH",
"0 -126 OFFCURVE",
"26 -146 OFFCURVE",
"61 -146 CURVE SMOOTH"
);
}
);
width = 0;
}
);
unicode = 112E9;
category = Mark;
subCategory = Nonspacing;
},
{
glyphname = u112EA;
lastChange = "2018-06-07 20:09:52 +0000";
layers = (
{
anchors = (
{
name = _Anchor16;
position = "{60, 0}";
},
{
name = _Anchor4;
position = "{60, 0}";
}
);
layerId = UUID0;
paths = (
{
closed = 1;
nodes = (
"290 -217 LINE",
"53 -30 LINE",
"1 -90 LINE",
"240 -280 LINE"
);
}
);
width = 0;
}
);
unicode = 112EA;
category = Mark;
subCategory = Nonspacing;
},
{
glyphname = u112F0;
lastChange = "2018-06-07 20:09:23 +0000";
layers = (
{
layerId = UUID0;
paths = (
{
closed = 1;
nodes = (
"386 72 OFFCURVE",
"483 164 OFFCURVE",
"483 300 CURVE SMOOTH",
"483 436 OFFCURVE",
"386 528 OFFCURVE",
"266 528 CURVE SMOOTH",
"146 528 OFFCURVE",
"50 436 OFFCURVE",
"50 300 CURVE SMOOTH",
"50 164 OFFCURVE",
"146 72 OFFCURVE",
"266 72 CURVE SMOOTH"
);
},
{
closed = 1;
nodes = (
"193 152 OFFCURVE",
"135 207 OFFCURVE",
"135 299 CURVE SMOOTH",
"135 391 OFFCURVE",
"193 448 OFFCURVE",
"265 448 CURVE SMOOTH",
"337 448 OFFCURVE",
"398 391 OFFCURVE",
"398 299 CURVE SMOOTH",
"398 207 OFFCURVE",
"337 152 OFFCURVE",
"265 152 CURVE SMOOTH"
);
}
);
width = 533;
}
);
unicode = 112F0;
category = Letter;
},
{
glyphname = u112F1;
lastChange = "2018-06-07 20:09:23 +0000";
layers = (
{
layerId = UUID0;
paths = (
{
closed = 1;
nodes = (
"462 -10 OFFCURVE",
"474 -9 OFFCURVE",
"489 -7 CURVE",
"498 73 LINE",
"482 71 OFFCURVE",
"463 70 OFFCURVE",
"451 70 CURVE SMOOTH",
"396 70 OFFCURVE",
"388 94 OFFCURVE",
"388 145 CURVE SMOOTH",
"388 385 LINE SMOOTH",
"388 495 OFFCURVE",
"359 620 OFFCURVE",
"216 620 CURVE SMOOTH",
"104 620 OFFCURVE",
"50 543 OFFCURVE",
"50 448 CURVE SMOOTH",
"50 349 OFFCURVE",
"109 287 OFFCURVE",
"206 287 CURVE SMOOTH",
"255 287 OFFCURVE",
"291 297 OFFCURVE",
"330 315 CURVE",
"330 396 LINE",
"289 376 OFFCURVE",
"259 363 OFFCURVE",
"223 363 CURVE SMOOTH",
"163 363 OFFCURVE",
"133 400 OFFCURVE",
"133 454 CURVE SMOOTH",
"133 507 OFFCURVE",
"163 540 OFFCURVE",
"212 540 CURVE SMOOTH",
"300 540 OFFCURVE",
"302 436 OFFCURVE",
"302 372 CURVE",
"302 136 LINE SMOOTH",
"302 39 OFFCURVE",
"337 -10 OFFCURVE",
"447 -10 CURVE SMOOTH"
);
}
);
width = 518;
}
);
unicode = 112F1;
category = Letter;
},
{
glyphname = u112F2;
lastChange = "2018-06-07 20:09:23 +0000";
layers = (
{
layerId = UUID0;
paths = (
{
closed = 1;
nodes = (
"413 -10 OFFCURVE",
"530 145 OFFCURVE",
"530 329 CURVE SMOOTH",
"530 511 OFFCURVE",
"416 620 OFFCURVE",
"238 620 CURVE SMOOTH",
"168 620 OFFCURVE",
"106 603 OFFCURVE",
"40 569 CURVE",
"71 499 LINE",
"124 526 OFFCURVE",
"177 540 OFFCURVE",
"234 540 CURVE SMOOTH",
"380 540 OFFCURVE",
"445 448 OFFCURVE",
"445 325 CURVE SMOOTH",
"445 193 OFFCURVE",
"371 68 OFFCURVE",
"222 68 CURVE SMOOTH",
"167 68 OFFCURVE",
"140 85 OFFCURVE",
"140 117 CURVE SMOOTH",
"140 149 OFFCURVE",
"167 165 OFFCURVE",
"214 165 CURVE SMOOTH",
"322 165 OFFCURVE",
"445 80 OFFCURVE",
"564 -10 CURVE",
"607 50 LINE",
"459 157 OFFCURVE",
"337 241 OFFCURVE",
"214 241 CURVE SMOOTH",
"138 241 OFFCURVE",
"55 209 OFFCURVE",
"55 115 CURVE SMOOTH",
"55 25 OFFCURVE",
"131 -10 OFFCURVE",
"222 -10 CURVE SMOOTH"
);
}
);
width = 627;
}
);
unicode = 112F2;
category = Letter;
},
{
glyphname = u112F3;
lastChange = "2018-06-07 20:09:23 +0000";
layers = (
{
layerId = UUID0;
paths = (
{
closed = 1;
nodes = (
"378 -10 OFFCURVE",
"469 57 OFFCURVE",
"469 183 CURVE SMOOTH",
"469 250 OFFCURVE",
"443 289 OFFCURVE",
"404 316 CURVE",
"437 343 OFFCURVE",
"459 382 OFFCURVE",
"459 442 CURVE SMOOTH",
"459 565 OFFCURVE",
"365 620 OFFCURVE",
"248 620 CURVE SMOOTH",
"164 620 OFFCURVE",
"98 594 OFFCURVE",
"47 567 CURVE",
"82 492 LINE",
"125 516 OFFCURVE",
"180 540 OFFCURVE",
"244 540 CURVE SMOOTH",
"323 540 OFFCURVE",
"374 504 OFFCURVE",
"374 444 CURVE SMOOTH",
"374 398 OFFCURVE",
"344 353 OFFCURVE",
"248 353 CURVE SMOOTH",
"212 353 OFFCURVE",
"160 359 OFFCURVE",
"140 364 CURVE",
"129 285 LINE",
"177 277 OFFCURVE",
"218 273 OFFCURVE",
"261 273 CURVE SMOOTH",
"282 273 OFFCURVE",
"295 274 OFFCURVE",
"308 276 CURVE",
"361 260 OFFCURVE",
"384 228 OFFCURVE",
"384 185 CURVE SMOOTH",
"384 100 OFFCURVE",
"309 70 OFFCURVE",
"241 70 CURVE SMOOTH",
"168 70 OFFCURVE",
"118 101 OFFCURVE",
"78 132 CURVE",
"35 61 LINE",
"84 26 OFFCURVE",
"144 -10 OFFCURVE",
"242 -10 CURVE SMOOTH"
);
}
);
width = 519;
}
);
unicode = 112F3;
category = Letter;
},
{
glyphname = u112F4;
lastChange = "2018-06-07 20:09:23 +0000";
layers = (
{
layerId = UUID0;
paths = (
{
closed = 1;
nodes = (
"449 -10 OFFCURVE",
"526 40 OFFCURVE",
"526 153 CURVE SMOOTH",
"526 236 OFFCURVE",
"473 295 OFFCURVE",
"383 393 CURVE SMOOTH",
"282 502 LINE SMOOTH",
"193 599 OFFCURVE",
"165 620 OFFCURVE",
"114 620 CURVE SMOOTH",
"55 620 OFFCURVE",
"29 597 OFFCURVE",
"0 550 CURVE",
"55 503 LINE",
"72 530 OFFCURVE",
"86 543 OFFCURVE",
"108 543 CURVE SMOOTH",
"128 543 OFFCURVE",
"155 521 OFFCURVE",
"227 442 CURVE SMOOTH",
"330 329 LINE SMOOTH",
"407 245 OFFCURVE",
"441 202 OFFCURVE",
"441 152 CURVE SMOOTH",
"441 92 OFFCURVE",
"400 70 OFFCURVE",
"353 70 CURVE SMOOTH",
"299 70 OFFCURVE",
"261 99 OFFCURVE",
"261 155 CURVE SMOOTH",
"261 209 OFFCURVE",
"292 245 OFFCURVE",
"387 336 CURVE SMOOTH",
"625 562 LINE",
"570 620 LINE",
"328 390 LINE SMOOTH",
"237 303 OFFCURVE",
"176 244 OFFCURVE",
"176 147 CURVE SMOOTH",
"176 45 OFFCURVE",
"245 -10 OFFCURVE",
"349 -10 CURVE SMOOTH"
);
}
);
width = 645;
}
);
rightMetricsKey = u112B0;
unicode = 112F4;
category = Letter;
},
{
glyphname = u112F5;
lastChange = "2018-06-07 20:09:23 +0000";
layers = (
{
layerId = UUID0;
paths = (
{
closed = 1;
nodes = (
"549 -10 OFFCURVE",
"563 -8 OFFCURVE",
"578 -4 CURVE",
"586 74 LINE",
"576 71 OFFCURVE",
"565 70 OFFCURVE",
"553 70 CURVE SMOOTH",
"514 70 OFFCURVE",
"509 97 OFFCURVE",
"509 136 CURVE",
"509 610 LINE",
"424 620 LINE",
"424 468 LINE",
"432 541 LINE",
"420 450 OFFCURVE",
"360 405 OFFCURVE",
"262 405 CURVE SMOOTH",
"132 405 OFFCURVE",
"109 485 OFFCURVE",
"101 610 CURVE",
"20 620 LINE",
"22 420 OFFCURVE",
"97 325 OFFCURVE",
"262 325 CURVE SMOOTH",
"322 325 OFFCURVE",
"396 344 OFFCURVE",
"443 417 CURVE",
"423 430 LINE",
"423 127 LINE",
"423 51 OFFCURVE",
"440 -10 OFFCURVE",
"533 -10 CURVE SMOOTH"
);
}
);
width = 606;
}
);
unicode = 112F5;
category = Letter;
},
{
glyphname = u112F6;
lastChange = "2018-06-07 20:09:23 +0000";
layers = (
{
layerId = UUID0;
paths = (
{
closed = 1;
nodes = (
"375 -10 OFFCURVE",
"456 26 OFFCURVE",
"504 61 CURVE",
"461 132 LINE",
"424 103 OFFCURVE",
"354 70 OFFCURVE",
"273 70 CURVE SMOOTH",
"183 70 OFFCURVE",
"125 112 OFFCURVE",
"125 183 CURVE SMOOTH",
"125 228 OFFCURVE",
"150 264 OFFCURVE",
"203 280 CURVE",
"217 277 OFFCURVE",
"243 273 OFFCURVE",
"272 273 CURVE SMOOTH",
"306 273 OFFCURVE",
"337 277 OFFCURVE",
"385 285 CURVE",
"374 364 LINE",
"354 359 OFFCURVE",
"302 353 OFFCURVE",
"266 353 CURVE SMOOTH",
"170 353 OFFCURVE",
"140 398 OFFCURVE",
"140 450 CURVE SMOOTH",
"140 504 OFFCURVE",
"180 540 OFFCURVE",
"263 540 CURVE SMOOTH",
"322 540 OFFCURVE",
"359 526 OFFCURVE",
"402 502 CURVE",
"437 577 LINE",
"386 604 OFFCURVE",
"336 620 OFFCURVE",
"270 620 CURVE SMOOTH",
"149 620 OFFCURVE",
"55 569 OFFCURVE",
"55 446 CURVE SMOOTH",
"55 378 OFFCURVE",
"90 328 OFFCURVE",
"139 301 CURVE",
"140 332 LINE",
"84 296 OFFCURVE",
"40 246 OFFCURVE",
"40 177 CURVE SMOOTH",
"40 58 OFFCURVE",
"130 -10 OFFCURVE",
"272 -10 CURVE SMOOTH"
);
}
);
width = 519;
}
);
unicode = 112F6;
category = Letter;
},
{
glyphname = u112F7;
lastChange = "2018-06-07 20:09:23 +0000";
layers = (
{
layerId = UUID0;
paths = (
{
closed = 1;
nodes = (
"550 -10 OFFCURVE",
"675 84 OFFCURVE",
"675 310 CURVE SMOOTH",
"675 477 OFFCURVE",
"597 620 OFFCURVE",
"453 620 CURVE SMOOTH",
"357 620 OFFCURVE",
"312 556 OFFCURVE",
"312 471 CURVE SMOOTH",
"312 293 OFFCURVE",
"517 249 OFFCURVE",
"618 241 CURVE",
"618 316 LINE",
"530 329 OFFCURVE",
"397 365 OFFCURVE",
"397 471 CURVE SMOOTH",
"397 518 OFFCURVE",
"421 538 OFFCURVE",
"458 538 CURVE SMOOTH",
"551 538 OFFCURVE",
"588 416 OFFCURVE",
"588 309 CURVE SMOOTH",
"588 162 OFFCURVE",
"537 70 OFFCURVE",
"384 70 CURVE SMOOTH",
"171 70 OFFCURVE",
"125 275 OFFCURVE",
"125 460 CURVE SMOOTH",
"125 510 OFFCURVE",
"131 560 OFFCURVE",
"138 599 CURVE",
"55 620 LINE",
"45 568 OFFCURVE",
"40 517 OFFCURVE",
"40 456 CURVE SMOOTH",
"40 225 OFFCURVE",
"119 -10 OFFCURVE",
"377 -10 CURVE SMOOTH"
);
}
);
width = 725;
}
);
unicode = 112F7;
category = Letter;
},
{
glyphname = u112F8;
lastChange = "2018-06-07 20:09:23 +0000";
layers = (
{
layerId = UUID0;
paths = (
{
closed = 1;
nodes = (
"672 0 LINE",
"685 75 LINE",
"304 75 LINE SMOOTH",
"204 75 OFFCURVE",
"125 102 OFFCURVE",
"125 191 CURVE SMOOTH",
"125 269 OFFCURVE",
"187 309 OFFCURVE",
"234 339 CURVE SMOOTH",
"569 556 LINE",
"523 620 LINE",
"193 409 LINE SMOOTH",
"131 370 OFFCURVE",
"40 303 OFFCURVE",
"40 188 CURVE SMOOTH",
"40 27 OFFCURVE",
"165 0 OFFCURVE",
"289 0 CURVE SMOOTH"
);
}
);
width = 705;
}
);
unicode = 112F8;
category = Letter;
},
{
glyphname = u112F9;
lastChange = "2018-06-07 20:09:23 +0000";
layers = (
{
layerId = UUID0;
paths = (
{
closed = 1;
nodes = (
"516 -10 OFFCURVE",
"647 73 OFFCURVE",
"686 217 CURVE",
"616 259 LINE",
"580 150 OFFCURVE",
"484 70 OFFCURVE",
"360 70 CURVE SMOOTH",
"238 70 OFFCURVE",
"125 141 OFFCURVE",
"125 334 CURVE SMOOTH",
"125 436 OFFCURVE",
"161 527 OFFCURVE",
"191 594 CURVE",
"112 620 LINE",
"85 570 OFFCURVE",
"40 459 OFFCURVE",
"40 331 CURVE SMOOTH",
"40 128 OFFCURVE",
"152 -10 OFFCURVE",
"357 -10 CURVE SMOOTH"
);
},
{
closed = 1;
nodes = (
"566 539 LINE",
"505 590 LINE",
"147 123 LINE",
"206 68 LINE"
);
}
);
width = 726;
}
);
unicode = 112F9;
category = Letter;
},
{
glyphname = u112E1_u112C0;
lastChange = "2021-12-15 12:40:24 +0000";
layers = (
{
anchors = (
{
name = Anchor4;
position = "{546, 0}";
},
{
name = Anchor9;
position = "{245, 830}";
}
);
layerId = UUID0;
paths = (
{
closed = 1;
nodes = (
"170 513 LINE SMOOTH",
"170 667 OFFCURVE",
"233 700 OFFCURVE",
"284 700 CURVE SMOOTH",
"353 700 OFFCURVE",
"387 655 OFFCURVE",
"456 556 CURVE SMOOTH",
"608 338 LINE SMOOTH",
"691 219 OFFCURVE",
"706 183 OFFCURVE",
"706 143 CURVE SMOOTH",
"706 97 OFFCURVE",
"667 70 OFFCURVE",
"616 70 CURVE SMOOTH",
"565 70 OFFCURVE",
"527 97 OFFCURVE",
"527 143 CURVE SMOOTH",
"527 194 OFFCURVE",
"552 229 OFFCURVE",
"641 353 CURVE SMOOTH",
"807 584 LINE",
"745 630 LINE",
"553 363 LINE SMOOTH",
"492 278 OFFCURVE",
"442 205 OFFCURVE",
"442 142 CURVE SMOOTH",
"442 58 OFFCURVE",
"505 -10 OFFCURVE",
"615 -10 CURVE SMOOTH",
"723 -10 OFFCURVE",
"791 55 OFFCURVE",
"791 140 CURVE SMOOTH",
"791 199 OFFCURVE",
"765 248 OFFCURVE",
"661 399 CURVE SMOOTH",
"511 616 LINE SMOOTH",
"451 703 OFFCURVE",
"395 780 OFFCURVE",
"284 780 CURVE SMOOTH",
"147 780 OFFCURVE",
"85 672 OFFCURVE",
"85 522 CURVE SMOOTH",
"85 0 LINE",
"170 -10 LINE"
);
}
);
width = 829;
}
);
leftMetricsKey = u112E1;
rightMetricsKey = u112C0;
category = Letter;
subCategory = Other;
},
{
glyphname = u112C0_u112E2;
lastChange = "2021-12-15 12:40:24 +0000";
layers = (
{
anchors = (
{
name = Anchor4;
position = "{196, 0}";
},
{
name = Anchor9;
position = "{497, 830}";
}
);
layerId = UUID0;
paths = (
{
closed = 1;
nodes = (
"310 -10 OFFCURVE",
"373 58 OFFCURVE",
"373 142 CURVE SMOOTH",
"373 205 OFFCURVE",
"323 278 OFFCURVE",
"262 363 CURVE SMOOTH",
"70 630 LINE",
"8 584 LINE",
"174 353 LINE SMOOTH",
"263 229 OFFCURVE",
"288 194 OFFCURVE",
"288 143 CURVE SMOOTH",
"288 97 OFFCURVE",
"250 70 OFFCURVE",
"199 70 CURVE SMOOTH",
"148 70 OFFCURVE",
"109 97 OFFCURVE",
"109 143 CURVE SMOOTH",
"109 183 OFFCURVE",
"124 219 OFFCURVE",
"207 338 CURVE SMOOTH",
"359 556 LINE SMOOTH",
"428 655 OFFCURVE",
"462 700 OFFCURVE",
"531 700 CURVE SMOOTH",
"582 700 OFFCURVE",
"645 667 OFFCURVE",
"645 513 CURVE SMOOTH",
"645 0 LINE",
"730 -10 LINE",
"730 522 LINE SMOOTH",
"730 672 OFFCURVE",
"668 780 OFFCURVE",
"531 780 CURVE SMOOTH",
"420 780 OFFCURVE",
"364 703 OFFCURVE",
"304 616 CURVE SMOOTH",
"154 399 LINE SMOOTH",
"50 248 OFFCURVE",
"24 199 OFFCURVE",
"24 140 CURVE SMOOTH",
"24 55 OFFCURVE",
"92 -10 OFFCURVE",
"200 -10 CURVE SMOOTH"
);
}
);
width = 782;
}
);
category = Letter;
subCategory = Other;
},
{
glyphname = u112E1_u112C3;
lastChange = "2021-12-15 12:40:24 +0000";
layers = (
{
anchors = (
{
name = Anchor4;
position = "{805, 0}";
},
{
name = Anchor9;
position = "{290, 830}";
}
);
layerId = UUID0;
paths = (
{
closed = 1;
nodes = (
"170 513 LINE SMOOTH",
"170 666 OFFCURVE",
"240 700 OFFCURVE",
"311 700 CURVE SMOOTH",
"407 700 OFFCURVE",
"440 611 OFFCURVE",
"444 488 CURVE SMOOTH",
"461 0 LINE",
"536 0 LINE",
"730 374 LINE",
"712 384 LINE",
"718 0 LINE",
"784 0 LINE",
"860 188 OFFCURVE",
"975 285 OFFCURVE",
"1103 285 CURVE SMOOTH",
"1193 285 OFFCURVE",
"1228 243 OFFCURVE",
"1228 176 CURVE SMOOTH",
"1228 117 OFFCURVE",
"1201 70 OFFCURVE",
"1137 70 CURVE SMOOTH",
"1053 70 OFFCURVE",
"1033 153 OFFCURVE",
"1033 228 CURVE SMOOTH",
"1033 411 OFFCURVE",
"1153 540 OFFCURVE",
"1345 540 CURVE",
"1362 620 LINE",
"1117 620 OFFCURVE",
"950 455 OFFCURVE",
"950 220 CURVE SMOOTH",
"950 81 OFFCURVE",
"1009 -10 OFFCURVE",
"1135 -10 CURVE SMOOTH",
"1259 -10 OFFCURVE",
"1311 78 OFFCURVE",
"1311 169 CURVE SMOOTH",
"1311 251 OFFCURVE",
"1269 362 OFFCURVE",
"1115 362 CURVE SMOOTH",
"965 362 OFFCURVE",
"837 271 OFFCURVE",
"766 111 CURVE",
"791 116 LINE",
"786 485 LINE",
"715 500 LINE",
"521 118 LINE",
"540 54 LINE",
"524 513 LINE SMOOTH",
"518 679 OFFCURVE",
"459 780 OFFCURVE",
"308 780 CURVE SMOOTH",
"151 780 OFFCURVE",
"85 672 OFFCURVE",
"85 522 CURVE SMOOTH",
"85 0 LINE",
"170 -10 LINE"
);
}
);
width = 1382;
}
);
leftMetricsKey = u112E1;
rightMetricsKey = u112C3;
category = Letter;
subCategory = Other;
},
{
glyphname = u112C3_u112E2;
lastChange = "2021-12-15 12:40:24 +0000";
layers = (
{
anchors = (
{
name = Anchor4;
position = "{448, 0}";
},
{
name = Anchor9;
position = "{938, 830}";
}
);
layerId = UUID0;
paths = (
{
closed = 1;
nodes = (
"888 -10 OFFCURVE",
"940 78 OFFCURVE",
"940 169 CURVE SMOOTH",
"940 251 OFFCURVE",
"898 362 OFFCURVE",
"744 362 CURVE SMOOTH",
"594 362 OFFCURVE",
"466 271 OFFCURVE",
"395 111 CURVE",
"420 116 LINE",
"413 485 LINE",
"344 500 LINE",
"150 118 LINE",
"171 54 LINE",
"171 444 LINE SMOOTH",
"171 546 OFFCURVE",
"141 609 OFFCURVE",
"29 620 CURVE",
"10 546 LINE",
"58 543 OFFCURVE",
"90 514 OFFCURVE",
"90 444 CURVE SMOOTH",
"90 0 LINE",
"165 0 LINE",
"359 374 LINE",
"339 384 LINE",
"347 0 LINE",
"413 0 LINE",
"489 188 OFFCURVE",
"604 285 OFFCURVE",
"732 285 CURVE SMOOTH",
"822 285 OFFCURVE",
"857 243 OFFCURVE",
"857 176 CURVE SMOOTH",
"857 117 OFFCURVE",
"830 70 OFFCURVE",
"766 70 CURVE SMOOTH",
"682 70 OFFCURVE",
"662 153 OFFCURVE",
"662 228 CURVE SMOOTH",
"662 438 OFFCURVE",
"740 700 OFFCURVE",
"946 700 CURVE SMOOTH",
"1012 700 OFFCURVE",
"1077 666 OFFCURVE",
"1077 513 CURVE SMOOTH",
"1077 -10 LINE",
"1162 0 LINE",
"1162 522 LINE SMOOTH",
"1162 672 OFFCURVE",
"1099 780 OFFCURVE",
"949 780 CURVE SMOOTH",
"672 780 OFFCURVE",
"579 434 OFFCURVE",
"579 220 CURVE SMOOTH",
"579 81 OFFCURVE",
"638 -10 OFFCURVE",
"764 -10 CURVE SMOOTH"
);
}
);
width = 1256;
}
);
leftMetricsKey = u112C3;
rightMetricsKey = u112E2;
category = Letter;
subCategory = Other;
},
{
glyphname = u112E1_u112D1;
lastChange = "2021-12-15 12:40:24 +0000";
layers = (
{
anchors = (
{
name = Anchor4;
position = "{630, 0}";
},
{
name = Anchor9;
position = "{273, 830}";
}
);
layerId = UUID0;
paths = (
{
closed = 1;
nodes = (
"170 513 LINE SMOOTH",
"170 666 OFFCURVE",
"230 700 OFFCURVE",
"291 700 CURVE SMOOTH",
"391 700 OFFCURVE",
"431 610 OFFCURVE",
"463 480 CURVE SMOOTH",
"487 381 OFFCURVE",
"561 123 OFFCURVE",
"622 9 CURVE",
"693 -10 LINE",
"891 132 OFFCURVE",
"1076 297 OFFCURVE",
"1218 574 CURVE",
"1144 615 LINE",
"1044 405 OFFCURVE",
"868 210 OFFCURVE",
"684 79 CURVE",
"638 164 OFFCURVE",
"578 370 OFFCURVE",
"546 497 CURVE SMOOTH",
"511 635 OFFCURVE",
"443 780 OFFCURVE",
"288 780 CURVE SMOOTH",
"145 780 OFFCURVE",
"85 672 OFFCURVE",
"85 522 CURVE SMOOTH",
"85 0 LINE",
"170 -10 LINE"
);
}
);
width = 1229;
}
);
leftMetricsKey = u112E1;
rightMetricsKey = u112D1;
category = Letter;
subCategory = Other;
},
{
glyphname = u112D1_u112E2;
lastChange = "2021-12-15 12:40:24 +0000";
layers = (
{
anchors = (
{
name = Anchor4;
position = "{245, 0}";
},
{
name = Anchor9;
position = "{840, 830}";
}
);
layerId = UUID0;
paths = (
{
closed = 1;
nodes = (
"395 137 OFFCURVE",
"483 258 OFFCURVE",
"624 528 CURVE SMOOTH",
"668 613 OFFCURVE",
"720 700 OFFCURVE",
"819 700 CURVE SMOOTH",
"888 700 OFFCURVE",
"940 666 OFFCURVE",
"940 513 CURVE SMOOTH",
"940 -10 LINE",
"1025 0 LINE",
"1025 522 LINE SMOOTH",
"1025 672 OFFCURVE",
"973 780 OFFCURVE",
"822 780 CURVE SMOOTH",
"673 780 OFFCURVE",
"610 671 OFFCURVE",
"550 553 CURVE SMOOTH",
"452 360 OFFCURVE",
"356 215 OFFCURVE",
"231 84 CURVE",
"185 169 OFFCURVE",
"119 369 OFFCURVE",
"93 497 CURVE",
"10 480 LINE",
"27 379 OFFCURVE",
"108 123 OFFCURVE",
"169 9 CURVE",
"240 -10 LINE"
);
}
);
width = 1119;
}
);
leftMetricsKey = u112D1;
rightMetricsKey = u112E2;
category = Letter;
subCategory = Other;
},
{
glyphname = u112E1_u112D4;
lastChange = "2021-12-15 12:40:24 +0000";
layers = (
{
anchors = (
{
name = Anchor4;
position = "{749, 0}";
},
{
name = Anchor9;
position = "{280, 830}";
}
);
layerId = UUID0;
paths = (
{
closed = 1;
nodes = (
"170 513 LINE SMOOTH",
"170 666 OFFCURVE",
"230 700 OFFCURVE",
"291 700 CURVE SMOOTH",
"399 700 OFFCURVE",
"436 618 OFFCURVE",
"459 513 CURVE SMOOTH",
"571 0 LINE",
"631 0 LINE",
"825 404 LINE",
"879 0 LINE",
"939 0 LINE",
"1146 380 LINE SMOOTH",
"1193 466 OFFCURVE",
"1219 505 OFFCURVE",
"1283 545 CURVE",
"1260 620 LINE",
"1179 595 OFFCURVE",
"1133 526 OFFCURVE",
"1089 442 CURVE SMOOTH",
"933 146 LINE",
"886 531 LINE",
"817 551 LINE",
"622 143 LINE",
"532 542 LINE SMOOTH",
"505 663 OFFCURVE",
"451 780 OFFCURVE",
"288 780 CURVE SMOOTH",
"145 780 OFFCURVE",
"85 672 OFFCURVE",
"85 522 CURVE SMOOTH",
"85 0 LINE",
"170 -10 LINE"
);
}
);
width = 1283;
}
);
leftMetricsKey = u112E1;
rightMetricsKey = u112D4;
category = Letter;
subCategory = Other;
},
{
glyphname = u112D4_u112E2;
lastChange = "2021-12-15 12:40:24 +0000";
layers = (
{
anchors = (
{
name = Anchor4;
position = "{378, 0}";
},
{
name = Anchor9;
position = "{980, 830}";
}
);
layerId = UUID0;
paths = (
{
closed = 1;
nodes = (
"1167 522 LINE SMOOTH",
"1167 672 OFFCURVE",
"1107 780 OFFCURVE",
"964 780 CURVE SMOOTH",
"833 780 OFFCURVE",
"793 702 OFFCURVE",
"729 567 CURVE SMOOTH",
"529 146 LINE",
"482 531 LINE",
"413 551 LINE",
"218 143 LINE",
"171 389 LINE SMOOTH",
"152 487 OFFCURVE",
"128 575 OFFCURVE",
"78 620 CURVE",
"20 567 LINE",
"52 535 OFFCURVE",
"75 477 OFFCURVE",
"96 367 CURVE SMOOTH",
"167 0 LINE",
"227 0 LINE",
"421 404 LINE",
"475 0 LINE",
"535 0 LINE",
"805 545 LINE SMOOTH",
"863 661 OFFCURVE",
"890 700 OFFCURVE",
"961 700 CURVE SMOOTH",
"1022 700 OFFCURVE",
"1082 666 OFFCURVE",
"1082 513 CURVE SMOOTH",
"1082 0 LINE",
"1167 -10 LINE"
);
}
);
width = 1261;
}
);
leftMetricsKey = u112D4;
rightMetricsKey = u112E2;
category = Letter;
subCategory = Other;
},
{
glyphname = u112D6_u112E2;
lastChange = "2021-12-15 12:40:24 +0000";
layers = (
{
anchors = (
{
name = Anchor4;
position = "{511, 0}";
},
{
name = Anchor9;
position = "{1134, 830}";
}
);
layerId = UUID0;
paths = (
{
closed = 1;
nodes = (
"1295 522 LINE SMOOTH",
"1295 672 OFFCURVE",
"1235 780 OFFCURVE",
"1092 780 CURVE SMOOTH",
"958 780 OFFCURVE",
"913 682 OFFCURVE",
"854 552 CURVE SMOOTH",
"673 155 LINE",
"626 531 LINE",
"557 551 LINE",
"367 183 LINE",
"367 410 LINE SMOOTH",
"367 521 OFFCURVE",
"336 620 OFFCURVE",
"209 620 CURVE SMOOTH",
"93 620 OFFCURVE",
"40 544 OFFCURVE",
"40 452 CURVE SMOOTH",
"40 369 OFFCURVE",
"87 293 OFFCURVE",
"198 293 CURVE SMOOTH",
"241 293 OFFCURVE",
"275 303 OFFCURVE",
"309 320 CURVE",
"309 401 LINE",
"274 376 OFFCURVE",
"245 370 OFFCURVE",
"209 370 CURVE SMOOTH",
"154 370 OFFCURVE",
"123 405 OFFCURVE",
"123 457 CURVE SMOOTH",
"123 508 OFFCURVE",
"154 540 OFFCURVE",
"202 540 CURVE SMOOTH",
"272 540 OFFCURVE",
"283 479 OFFCURVE",
"283 400 CURVE SMOOTH",
"283 0 LINE",
"344 0 LINE",
"565 404 LINE",
"619 0 LINE",
"679 0 LINE",
"928 528 LINE SMOOTH",
"980 638 OFFCURVE",
"1014 700 OFFCURVE",
"1089 700 CURVE SMOOTH",
"1150 700 OFFCURVE",
"1210 666 OFFCURVE",
"1210 513 CURVE SMOOTH",
"1210 0 LINE",
"1295 -10 LINE"
);
}
);
width = 1389;
}
);
leftMetricsKey = u112D6;
rightMetricsKey = u112E2;
category = Letter;
subCategory = Other;
},
{
glyphname = u112E1_u112BD;
lastChange = "2021-12-15 12:40:24 +0000";
layers = (
{
anchors = (
{
name = Anchor4;
position = "{658, 0}";
},
{
name = Anchor9;
position = "{378, 830}";
}
);
layerId = UUID0;
paths = (
{
closed = 1;
nodes = (
"170 473 LINE SMOOTH",
"170 659 OFFCURVE",
"269 700 OFFCURVE",
"365 700 CURVE SMOOTH",
"483 700 OFFCURVE",
"557 651 OFFCURVE",
"557 473 CURVE SMOOTH",
"557 272 LINE SMOOTH",
"557 187 OFFCURVE",
"555 70 OFFCURVE",
"459 70 CURVE SMOOTH",
"398 70 OFFCURVE",
"373 118 OFFCURVE",
"373 171 CURVE SMOOTH",
"373 226 OFFCURVE",
"400 269 OFFCURVE",
"462 269 CURVE SMOOTH",
"505 269 OFFCURVE",
"538 249 OFFCURVE",
"579 217 CURVE",
"579 304 LINE",
"546 329 OFFCURVE",
"508 347 OFFCURVE",
"456 347 CURVE SMOOTH",
"349 347 OFFCURVE",
"290 270 OFFCURVE",
"290 167 CURVE SMOOTH",
"290 71 OFFCURVE",
"342 -10 OFFCURVE",
"461 -10 CURVE SMOOTH",
"637 -10 OFFCURVE",
"639 163 OFFCURVE",
"639 246 CURVE SMOOTH",
"639 500 LINE SMOOTH",
"639 684 OFFCURVE",
"536 780 OFFCURVE",
"362 780 CURVE SMOOTH",
"170 780 OFFCURVE",
"85 655 OFFCURVE",
"85 482 CURVE SMOOTH",
"85 0 LINE",
"170 -10 LINE"
);
},
{
closed = 1;
nodes = (
"850 610 LINE",
"766 620 LINE",
"766 0 LINE",
"850 -10 LINE"
);
}
);
width = 944;
}
);
leftMetricsKey = u112E1;
rightMetricsKey = u112BD;
category = Letter;
subCategory = Other;
},
{
glyphname = u112E1_u112D7;
lastChange = "2021-12-15 12:40:24 +0000";
layers = (
{
anchors = (
{
name = Anchor4;
position = "{680, 0}";
},
{
name = Anchor9;
position = "{287, 830}";
}
);
layerId = UUID0;
paths = (
{
closed = 1;
nodes = (
"170 513 LINE SMOOTH",
"170 666 OFFCURVE",
"230 700 OFFCURVE",
"291 700 CURVE SMOOTH",
"406 700 OFFCURVE",
"506 513 OFFCURVE",
"506 399 CURVE SMOOTH",
"506 376 OFFCURVE",
"502 356 OFFCURVE",
"498 337 CURVE SMOOTH",
"429 0 LINE",
"512 -10 LINE",
"557 224 LINE SMOOTH",
"592 408 OFFCURVE",
"697 535 OFFCURVE",
"781 535 CURVE SMOOTH",
"829 535 OFFCURVE",
"842 511 OFFCURVE",
"842 455 CURVE SMOOTH",
"842 413 OFFCURVE",
"828 354 OFFCURVE",
"812 300 CURVE SMOOTH",
"796 247 OFFCURVE",
"782 193 OFFCURVE",
"782 144 CURVE SMOOTH",
"782 41 OFFCURVE",
"837 -10 OFFCURVE",
"938 -10 CURVE SMOOTH",
"953 -10 OFFCURVE",
"965 -9 OFFCURVE",
"983 -7 CURVE",
"989 73 LINE",
"975 71 OFFCURVE",
"962 70 OFFCURVE",
"951 70 CURVE SMOOTH",
"907 70 OFFCURVE",
"866 91 OFFCURVE",
"866 152 CURVE SMOOTH",
"866 182 OFFCURVE",
"877 228 OFFCURVE",
"891 279 CURVE SMOOTH",
"908 342 OFFCURVE",
"926 413 OFFCURVE",
"926 470 CURVE SMOOTH",
"926 567 OFFCURVE",
"884 620 OFFCURVE",
"796 620 CURVE SMOOTH",
"706 620 OFFCURVE",
"631 545 OFFCURVE",
"583 462 CURVE",
"542 624 OFFCURVE",
"438 780 OFFCURVE",
"288 780 CURVE SMOOTH",
"145 780 OFFCURVE",
"85 672 OFFCURVE",
"85 522 CURVE SMOOTH",
"85 0 LINE",
"170 -10 LINE"
);
}
);
width = 1009;
}
);
leftMetricsKey = u112E1;
rightMetricsKey = u112B0;
category = Letter;
subCategory = Other;
},
{
glyphname = u112E2.alt;
lastChange = "2018-06-07 20:09:45 +0000";
layers = (
{
anchors = (
{
name = Anchor9;
position = "{-42, 870}";
}
);
layerId = UUID0;
paths = (
{
closed = 1;
nodes = (
"180 504 LINE SMOOTH",
"180 674 OFFCURVE",
"107 780 OFFCURVE",
"-42 780 CURVE SMOOTH",
"-142 780 OFFCURVE",
"-222 729 OFFCURVE",
"-271 620 CURVE",
"-195 590 LINE",
"-169 655 OFFCURVE",
"-130 700 OFFCURVE",
"-52 700 CURVE SMOOTH",
"33 700 OFFCURVE",
"95 655 OFFCURVE",
"95 494 CURVE SMOOTH",
"95 0 LINE",
"180 -10 LINE"
);
}
);
width = 274;
}
);
category = Letter;
},
{
glyphname = u112E8.alt;
lastChange = "2018-06-07 20:09:49 +0000";
layers = (
{
anchors = (
{
name = Anchor14;
position = "{174, 800}";
},
{
name = _Anchor11;
position = "{290, 570}";
}
);
layerId = UUID0;
paths = (
{
closed = 1;
nodes = (
"389 556 OFFCURVE",
"431 604 OFFCURVE",
"431 676 CURVE SMOOTH",
"431 753 OFFCURVE",
"379 794 OFFCURVE",
"304 794 CURVE SMOOTH",
"265 794 OFFCURVE",
"227 784 OFFCURVE",
"194 770 CURVE SMOOTH",
"170 760 OFFCURVE",
"147 754 OFFCURVE",
"125 754 CURVE SMOOTH",
"87 754 OFFCURVE",
"77 782 OFFCURVE",
"71 825 CURVE",
"0 812 LINE",
"0 694 OFFCURVE",
"73 683 OFFCURVE",
"112 683 CURVE SMOOTH",
"148 683 OFFCURVE",
"176 691 OFFCURVE",
"197 701 CURVE",
"195 692 OFFCURVE",
"194 682 OFFCURVE",
"194 674 CURVE SMOOTH",
"194 601 OFFCURVE",
"237 556 OFFCURVE",
"312 556 CURVE SMOOTH"
);
},
{
closed = 1;
nodes = (
"284 627 OFFCURVE",
"268 647 OFFCURVE",
"268 682 CURVE SMOOTH",
"268 697 OFFCURVE",
"270 712 OFFCURVE",
"277 723 CURVE",
"288 726 OFFCURVE",
"297 728 OFFCURVE",
"307 728 CURVE SMOOTH",
"339 728 OFFCURVE",
"357 708 OFFCURVE",
"357 676 CURVE SMOOTH",
"357 647 OFFCURVE",
"341 627 OFFCURVE",
"314 627 CURVE SMOOTH"
);
}
);
width = 0;
}
);
category = Mark;
subCategory = Nonspacing;
},
{
glyphname = u112E7.alt;
lastChange = "2018-06-07 20:09:56 +0000";
layers = (
{
anchors = (
{
name = Anchor14;
position = "{216, 800}";
},
{
name = _Anchor6;
position = "{364, 590}";
}
);
layerId = UUID0;
paths = (
{
closed = 1;
nodes = (
"431 597 OFFCURVE",
"432 625 OFFCURVE",
"432 636 CURVE SMOOTH",
"432 724 OFFCURVE",
"382 771 OFFCURVE",
"315 771 CURVE SMOOTH",
"286 771 OFFCURVE",
"256 765 OFFCURVE",
"214 755 CURVE SMOOTH",
"186 748 OFFCURVE",
"149 739 OFFCURVE",
"127 739 CURVE SMOOTH",
"90 739 OFFCURVE",
"78 768 OFFCURVE",
"72 815 CURVE",
"0 801 LINE",
"0 678 OFFCURVE",
"78 668 OFFCURVE",
"118 668 CURVE SMOOTH",
"140 668 OFFCURVE",
"176 671 OFFCURVE",
"210 681 CURVE SMOOTH",
"252 693 OFFCURVE",
"278 700 OFFCURVE",
"297 700 CURVE SMOOTH",
"342 700 OFFCURVE",
"352 658 OFFCURVE",
"352 622 CURVE SMOOTH",
"352 613 OFFCURVE",
"351 601 OFFCURVE",
"348 590 CURVE",
"427 575 LINE"
);
}
);
width = 0;
}
);
category = Mark;
subCategory = Nonspacing;
},
{
glyphname = u112E7_straight;
lastChange = "2018-06-07 20:09:56 +0000";
layers = (
{
anchors = (
{
name = Anchor14;
position = "{286, 800}";
},
{
name = _Anchor6;
position = "{468, 590}";
}
);
layerId = UUID0;
paths = (
{
closed = 1;
nodes = (
"536 575 LINE",
"536 636 LINE SMOOTH",
"536 724 OFFCURVE",
"472 771 OFFCURVE",
"391 771 CURVE SMOOTH",
"354 771 OFFCURVE",
"298 761 OFFCURVE",
"255 753 CURVE SMOOTH",
"216 746 OFFCURVE",
"176 739 OFFCURVE",
"148 739 CURVE SMOOTH",
"92 739 OFFCURVE",
"80 772 OFFCURVE",
"72 815 CURVE",
"0 802 LINE",
"0 677 OFFCURVE",
"88 668 OFFCURVE",
"146 668 CURVE SMOOTH",
"184 668 OFFCURVE",
"226 676 OFFCURVE",
"261 684 CURVE SMOOTH",
"300 693 OFFCURVE",
"340 700 OFFCURVE",
"369 700 CURVE SMOOTH",
"437 700 OFFCURVE",
"451 658 OFFCURVE",
"451 622 CURVE SMOOTH",
"451 575 LINE"
);
}
);
width = 0;
}
);
category = Mark;
subCategory = Nonspacing;
},
{
glyphname = u112E7_straight.alt;
lastChange = "2018-06-07 20:09:56 +0000";
layers = (
{
anchors = (
{
name = Anchor14;
position = "{216, 800}";
},
{
name = _Anchor6;
position = "{364, 590}";
}
);
layerId = UUID0;
paths = (
{
closed = 1;
nodes = (
"432 575 LINE",
"432 636 LINE SMOOTH",
"432 724 OFFCURVE",
"382 771 OFFCURVE",
"315 771 CURVE SMOOTH",
"286 771 OFFCURVE",
"256 765 OFFCURVE",
"214 755 CURVE SMOOTH",
"186 748 OFFCURVE",
"149 739 OFFCURVE",
"127 739 CURVE SMOOTH",
"90 739 OFFCURVE",
"78 768 OFFCURVE",
"72 815 CURVE",
"0 801 LINE",
"0 678 OFFCURVE",
"78 668 OFFCURVE",
"118 668 CURVE SMOOTH",
"140 668 OFFCURVE",
"176 671 OFFCURVE",
"210 681 CURVE SMOOTH",
"252 693 OFFCURVE",
"278 700 OFFCURVE",
"297 700 CURVE SMOOTH",
"338 700 OFFCURVE",
"347 658 OFFCURVE",
"347 622 CURVE SMOOTH",
"347 575 LINE"
);
}
);
width = 0;
}
);
category = Mark;
subCategory = Nonspacing;
},
{
glyphname = u112E1.alt;
lastChange = "2018-06-07 20:09:45 +0000";
layers = (
{
anchors = (
{
name = Anchor9;
position = "{294, 870}";
}
);
layerId = UUID0;
paths = (
{
closed = 1;
nodes = (
"170 513 LINE SMOOTH",
"170 666 OFFCURVE",
"230 700 OFFCURVE",
"291 700 CURVE SMOOTH",
"368 700 OFFCURVE",
"405 650 OFFCURVE",
"433 586 CURVE",
"518 586 LINE",
"483 683 OFFCURVE",
"426 780 OFFCURVE",
"288 780 CURVE SMOOTH",
"145 780 OFFCURVE",
"85 672 OFFCURVE",
"85 522 CURVE SMOOTH",
"85 0 LINE",
"170 -10 LINE"
);
}
);
width = 262;
}
);
category = Letter;
},
{
glyphname = u112E1.alt2;
lastChange = "2018-06-07 20:09:45 +0000";
layers = (
{
anchors = (
{
name = Anchor9;
position = "{294, 870}";
}
);
layerId = UUID0;
paths = (
{
closed = 1;
nodes = (
"170 513 LINE SMOOTH",
"170 666 OFFCURVE",
"230 700 OFFCURVE",
"291 700 CURVE SMOOTH",
"369 700 OFFCURVE",
"406 648 OFFCURVE",
"434 584 CURVE",
"509 609 LINE",
"473 697 OFFCURVE",
"415 780 OFFCURVE",
"288 780 CURVE SMOOTH",
"145 780 OFFCURVE",
"85 672 OFFCURVE",
"85 522 CURVE SMOOTH",
"85 0 LINE",
"170 -10 LINE"
);
}
);
width = 262;
}
);
category = Letter;
},
